<?xml version="1.0" encoding="UTF-8" standalone="no"?>
<svg
   width="32px"
   height="px"
   viewBox="0 0 32 32"
   version="1.1"
   id="svg2"
   sodipodi:docname="select.svg"
   inkscape:version="1.4.2 (f4327f4, 2025-05-13)"
   xmlns:inkscape="http://www.inkscape.org/namespaces/inkscape"
   xmlns:sodipodi="http://sodipodi.sourceforge.net/DTD/sodipodi-0.dtd"
   xmlns="http://www.w3.org/2000/svg"
   xmlns:svg="http://www.w3.org/2000/svg">
  <defs
     id="defs2" />
  <sodipodi:namedview
     id="namedview2"
     pagecolor="#ffffff"
     bordercolor="#000000"
     borderopacity="0.25"
     inkscape:showpageshadow="2"
     inkscape:pageopacity="0.0"
     inkscape:pagecheckerboard="0"
     inkscape:deskcolor="#d1d1d1"
     inkscape:zoom="12.948893"
     inkscape:cx="14.634456"
     inkscape:cy="18.920536"
     inkscape:window-width="1440"
     inkscape:window-height="830"
     inkscape:window-x="-6"
     inkscape:window-y="-6"
     inkscape:window-maximized="1"
     inkscape:current-layer="svg2" />
  <g
     id="surface1"
     transform="matrix(1.0000393,0,0,0.97987324,0,0.32175906)">
    <path
       style="fill:#ffffff;fill-opacity:1;fill-rule:nonzero;stroke:none"
       d="m 26.253906,15.933594 c 0.273438,0.527344 0.839844,0.789062 1.316406,0.609375 l 3.816407,-1.441407 c 0.527343,-0.199218 0.757812,-0.855468 0.515625,-1.464843 L 27.082031,1.492188 C 26.839844,0.882812 26.214844,0.550781 25.6875,0.75 L 21.871094,2.191406 C 21.34375,2.390625 21.113281,3.046875 21.355469,3.65625 Z m 0,0"
       id="path1" />
    <path
       style="fill:#ffffff;fill-opacity:1;fill-rule:nonzero;stroke:none"
       d="M 25.714844,16.136719 24.253906,16.933594 21.75,24.175781 c -0.109375,0.304688 0.04687,0.0078 -4.855469,6.179688 -2.15625,2.636719 -6.332031,-0.695313 -4.960937,-3.957031 l 1.675781,-5.246094 c 0.160156,-0.488282 -0.02734,-1.074219 -0.441406,-1.410156 L 12.53125,19.230469 c -0.351562,-0.28125 -0.800781,-0.328125 -1.144531,-0.113281 L 7.46875,21.585938 C 7.332031,21.769531 7.257812,22.003906 7.25,22.253906 L 7.097656,27.933594 C 6.984375,32.320312 1.125,31.707031 0.691406,27.363281 l -0.6640622,-6.625 C -0.101562,19.476562 0.226562,18.269531 0.9375,17.382812 c 0,0 5.371094,-6.691406 5.472656,-6.746093 l 7.410156,-4.121094 c 0.03125,-0.023437 7,-2.65625 7,-2.65625 z m 0,0"
       id="path2" />
  </g>
</svg>
