<?xml version="1.0" encoding="UTF-8" standalone="no"?>
<svg
   version="1.1"
   width="32"
   height="32"
   x="0"
   y="0"
   viewBox="0 0 31.992562 31.992562"
   xml:space="preserve"
   class=""
   id="svg2"
   sodipodi:docname="select.svg"
   inkscape:version="1.4.2 (f4327f4, 2025-05-13)"
   xmlns:inkscape="http://www.inkscape.org/namespaces/inkscape"
   xmlns:sodipodi="http://sodipodi.sourceforge.net/DTD/sodipodi-0.dtd"
   xmlns="http://www.w3.org/2000/svg"
   xmlns:svg="http://www.w3.org/2000/svg"><defs
     id="defs2" /><sodipodi:namedview
     id="namedview2"
     pagecolor="#ffffff"
     bordercolor="#000000"
     borderopacity="0.25"
     inkscape:showpageshadow="2"
     inkscape:pageopacity="0.0"
     inkscape:pagecheckerboard="0"
     inkscape:deskcolor="#d1d1d1"
     inkscape:zoom="4.578125"
     inkscape:cx="43.358362"
     inkscape:cy="42.812287"
     inkscape:window-width="1440"
     inkscape:window-height="830"
     inkscape:window-x="-6"
     inkscape:window-y="-6"
     inkscape:window-maximized="1"
     inkscape:current-layer="svg2" /><g
     id="g2"
     transform="matrix(0.06249988,0,0,0.0594744,0,2.7739092)"
     style="fill:#ffffff;fill-opacity:1;stroke:none;stroke-width:1.00029;stroke-dasharray:none"><path
       d="m 266.544,208.619 -36.577,-16.227 -89.356,16.679 -33.719,30.635 c -13.46,12.229 -30.17,19.934 -47.961,22.301 l -14.779,16.139 c 21.959,28.026 63.286,31.038 89.077,6.493 l 40.155,-38.215 92.933,-19.582 z"
       fill="#000000"
       opacity="1"
       data-original="#000000"
       class=""
       id="path1"
       style="fill:#ffffff;fill-opacity:1;stroke:none;stroke-width:1.00029;stroke-dasharray:none" /><path
       d="m 233.619,161.193 63.169,28.024 -0.834,67.054 -51.176,72.102 C 222.635,359.57 230.7,402.9 262.584,424.041 l 50.725,-68.128 a 109.2,109.2 0 0 1 67.634,-42.146 109.197,109.197 0 0 0 63.96,-37.481 l 21.236,-25.5 h 45.743 V 87.84 H 258.695 L 93.481,117.31 0,209.161 c 11.625,15.565 29.34,23.635 47.19,23.635 14.06,0 28.203,-5.004 39.528,-15.294 l 40.02,-36.36 z"
       fill="#000000"
       opacity="1"
       data-original="#000000"
       class=""
       id="path2"
       style="fill:#ffffff;fill-opacity:1;stroke:none;stroke-width:1.00029;stroke-dasharray:none" /></g></svg>
