<?xml version="1.0" encoding="UTF-8" standalone="no"?>
<svg
   class="svg-icon"
   style="overflow:hidden;fill:currentColor"
   viewBox="0 0 800 800"
   version="1.1"
   id="svg1"
   sodipodi:docname="copy.svg"
   width="800"
   height="800"
   inkscape:version="1.4.2 (f4327f4, 2025-05-13)"
   xmlns:inkscape="http://www.inkscape.org/namespaces/inkscape"
   xmlns:sodipodi="http://sodipodi.sourceforge.net/DTD/sodipodi-0.dtd"
   xmlns="http://www.w3.org/2000/svg"
   xmlns:svg="http://www.w3.org/2000/svg">
  <defs
     id="defs1" />
  <sodipodi:namedview
     id="namedview1"
     pagecolor="#ffffff"
     bordercolor="#000000"
     borderopacity="0.25"
     inkscape:showpageshadow="2"
     inkscape:pageopacity="0.0"
     inkscape:pagecheckerboard="0"
     inkscape:deskcolor="#d1d1d1"
     inkscape:zoom="0.4046529"
     inkscape:cx="268.13103"
     inkscape:cy="526.37705"
     inkscape:window-width="1440"
     inkscape:window-height="830"
     inkscape:window-x="-6"
     inkscape:window-y="-6"
     inkscape:window-maximized="1"
     inkscape:current-layer="svg1" />
  <path
     id="path2"
     style="overflow:hidden;fill:#ffffff;fill-opacity:1;stroke-width:0.54617"
     d="M 156.48171 0 C 154.5964 0 152.71304 1.8433028 152.71304 1.8433028 L 1.8861967 149.31875 C 1.8861967 151.16217 1.4210855e-14 153.00336 0 154.84679 L 0 543.80986 C 0 549.34015 3.7712894 553.03011 9.4272594 553.03011 L 181.06557 553.03011 L 181.06557 433.02474 L 166.31116 433.02474 C 161.87597 433.02474 158.30273 429.53387 158.30273 425.19725 L 158.30273 402.91871 C 158.30273 398.58208 161.87597 395.08934 166.31116 395.08934 L 181.06557 395.08934 L 181.06557 392.84597 L 166.31116 392.84597 C 161.87597 392.84597 158.30273 389.35511 158.30273 385.01848 L 158.30273 362.73807 C 158.30273 358.40144 161.87597 354.91245 166.31116 354.91245 L 189.09634 354.91245 C 189.45707 354.91245 189.80983 354.93495 190.15767 354.97975 L 272.59731 274.37357 C 272.53501 273.97867 272.50421 273.57274 272.50421 273.16028 L 272.50421 250.88174 C 272.50421 246.54511 276.07369 243.05238 280.50891 243.05238 L 303.29409 243.05238 C 303.71589 243.05238 304.13222 243.08505 304.53604 243.14585 L 333.77675 214.55223 C 333.77675 214.55223 335.66196 212.70892 337.54728 212.70892 L 339.43347 212.70892 L 341.31781 212.70892 L 414.77148 212.70892 L 414.77148 9.2165142 C 414.77143 3.6862342 411.00018 -1.1335187e-15 405.34422 0 L 160.25224 0 L 158.3679 0 L 156.48171 0 z M 150.82684 31.338018 L 150.82684 147.47544 L 32.050447 147.47544 L 150.82684 31.338018 z M 73.297268 155.02813 L 120.03696 232.75718 L 122.87836 226.70943 A 17.047221 9.0810751 85.137981 0 1 138.3664 233.22455 L 161.01565 326.78058 A 13.791493 7.3467445 85.137981 0 1 156.09441 344.83037 L 156.09441 344.92384 C 156.09441 349.26047 152.52304 352.75133 148.08785 352.75133 L 125.30267 352.75133 C 120.86747 352.75133 117.29611 349.26047 117.29611 344.92384 L 117.29611 323.28466 L 100.6797 313.46804 A 17.047221 9.0810751 85.137981 0 1 95.339515 285.34552 L 98.180912 279.2959 L 51.44122 201.56311 L 73.297268 155.02813 z M 117.29611 323.28466 L 152.80427 344.26204 A 13.791493 7.3467445 85.137981 0 0 156.09441 344.83037 L 156.09441 322.64343 C 156.09441 318.3068 152.52304 314.81594 148.08785 314.81594 L 125.30267 314.81594 C 120.86747 314.81594 117.29611 318.3068 117.29611 322.64343 L 117.29611 323.28466 z M 198.41001 202.95774 L 221.1952 202.95774 C 225.63037 202.95774 229.20176 206.44862 229.20176 210.78523 L 229.20176 233.06377 C 229.20176 237.4004 225.63037 240.89314 221.1952 240.89314 L 198.41001 240.89314 C 193.97483 240.89314 190.40345 237.40039 190.40345 233.06377 L 190.40345 210.78523 C 190.40345 206.44861 193.97483 202.95774 198.41001 202.95774 z M 198.41001 243.05238 L 221.1952 243.05238 C 225.63037 243.05238 229.20176 246.54511 229.20176 250.88174 L 229.20176 273.16028 C 229.20176 277.49691 225.63037 280.98778 221.1952 280.98778 L 198.41001 280.98778 C 193.97483 280.98778 190.40345 277.49691 190.40345 273.16028 L 190.40345 250.88174 C 190.40345 246.54511 193.97483 243.05238 198.41001 243.05238 z M 239.41664 243.05238 L 262.20182 243.05238 C 266.63704 243.05238 270.20652 246.54511 270.20652 250.88174 L 270.20652 273.16028 C 270.20652 277.49691 266.63704 280.98778 262.20182 280.98778 L 239.41664 280.98778 C 234.98149 280.98778 231.41008 277.49691 231.41008 273.16028 L 231.41008 250.88174 C 231.41008 246.54511 234.98149 243.05238 239.41664 243.05238 z M 125.30267 354.91245 L 148.08785 354.91245 C 152.52304 354.91245 156.09441 358.40144 156.09441 362.73807 L 156.09441 385.01848 C 156.09441 389.35511 152.52304 392.84597 148.08785 392.84597 L 125.30267 392.84597 C 120.86747 392.84597 117.29611 389.35511 117.29611 385.01848 L 117.29611 362.73807 C 117.29611 358.40144 120.86747 354.91245 125.30267 354.91245 z "
     transform="matrix(1.0489445,0,0,1.0447449,87.5,0)" />
  <path
     id="path12"
     style="overflow:visible;fill:#ffffff;fill-opacity:1;baseline-shift:baseline;display:inline;vector-effect:none;stroke-width:0.928435;paint-order:stroke markers fill;enable-background:accumulate;stop-color:#000000"
     d="m 158.38388,543.96489 -22.92437,48.61698 49.02769,81.21093 -2.98115,6.31964 a 17.810515,9.5252673 85.102979 0 0 5.60165,29.38096 l 54.67591,32.17176 a 14.40901,7.7061036 85.102979 0 0 8.61191,-18.26277 l -23.75621,-97.74318 a 17.810515,9.5252673 85.102979 0 0 -16.24657,-6.80625 l -2.98117,6.31962 z"
     transform="translate(6.0000048,-3.999996)" />
  <path
     id="path18"
     style="overflow:visible;fill:#ffffff;fill-opacity:1;baseline-shift:baseline;display:inline;vector-effect:none;stroke-width:0.928435;paint-order:stroke markers fill;enable-background:accumulate;stop-color:#000000"
     d="m 158.38388,543.96489 -22.92437,48.61698 49.02769,81.21093 -2.98115,6.31964 a 17.810514,9.5252683 85.102979 0 0 5.60165,29.38096 l 54.67591,32.17176 a 14.40901,7.7061035 85.102979 0 0 8.61191,-18.26277 l -23.75621,-97.74318 a 17.810514,9.5252683 85.102979 0 0 -16.24657,-6.80625 l -2.98117,6.31962 z"
     transform="translate(376,-516)" />
  <path
     id="path1-5-4"
     style="display:inline;overflow:hidden;fill:#ffffff;fill-opacity:1;stroke-width:0.571754"
     d="m 441.56847,222.22634 c -1.97759,0 -3.95417,1.92685 -3.95417,1.92685 L 279.4064,378.22522 c 0,1.92591 -1.97851,3.85182 -1.97851,5.77774 v 406.36699 c 0,5.77774 3.95547,9.63003 9.88826,9.63003 h 415.29558 c 5.9328,0 9.8883,-3.85229 9.8883,-9.63003 V 231.85637 c 0,-5.77773 -3.9555,-9.63003 -9.8883,-9.63003 h -257.08767 -1.97708 z m -5.93268,32.74098 V 376.29978 H 311.04685 Z m -26.7723,296.16117 h 23.90064 c 4.65227,0 8.39836,3.64646 8.39836,8.17713 v 23.27739 c 0,4.53067 -3.74609,8.17855 -8.39836,8.17855 h -23.90064 c -4.65228,0 -8.39836,-3.64788 -8.39836,-8.17855 v -23.27739 c 0,-4.53067 3.74608,-8.17713 8.39836,-8.17713 z m 0,41.89 h 23.90064 c 4.65227,0 8.39836,3.64646 8.39836,8.17713 v 23.27598 c 0,4.53067 -3.74609,8.17854 -8.39836,8.17854 h -23.90064 c -4.65228,0 -8.39836,-3.64787 -8.39836,-8.17854 v -23.27598 c 0,-4.53067 3.74608,-8.17713 8.39836,-8.17713 z m 43.01435,0 h 23.90064 c 4.65226,0 8.39837,3.64646 8.39837,8.17713 v 23.27598 c 0,4.53067 -3.74611,8.17854 -8.39837,8.17854 h -23.90064 c -4.65227,0 -8.39835,-3.64787 -8.39835,-8.17854 v -23.27598 c 0,-4.53067 3.74608,-8.17713 8.39835,-8.17713 z m 0,41.97604 h 23.90064 c 4.65226,0 8.39837,3.64787 8.39837,8.17854 v 23.27599 c 0,4.53066 -3.74611,8.17854 -8.39837,8.17854 h -23.90064 c -4.65227,0 -8.39835,-3.64788 -8.39835,-8.17854 v -23.27599 c 0,-4.53067 3.74608,-8.17854 8.39835,-8.17854 z m 43.01293,0 h 23.90066 c 4.65225,0 8.39836,3.64787 8.39836,8.17854 v 23.27599 c 0,4.53066 -3.74611,8.17854 -8.39836,8.17854 h -23.90066 c -4.65225,0 -8.39693,-3.64788 -8.39693,-8.17854 v -23.27599 c 0,-4.53067 3.74468,-8.17854 8.39693,-8.17854 z"
     sodipodi:nodetypes="sccsssssssccsccccsssssssssssssssssssssssssssssssssssssssssssss" />
</svg>
