<?xml version="1.0" encoding="UTF-8" standalone="no"?>
<svg
   class="svg-icon"
   style="overflow:hidden;fill:currentColor"
   viewBox="0 0 800 800"
   version="1.1"
   id="svg1"
   sodipodi:docname="merge.svg"
   width="800"
   height="800"
   inkscape:version="1.4.2 (f4327f4, 2025-05-13)"
   xmlns:inkscape="http://www.inkscape.org/namespaces/inkscape"
   xmlns:sodipodi="http://sodipodi.sourceforge.net/DTD/sodipodi-0.dtd"
   xmlns="http://www.w3.org/2000/svg"
   xmlns:svg="http://www.w3.org/2000/svg">
  <defs
     id="defs1" />
  <sodipodi:namedview
     id="namedview1"
     pagecolor="#ffffff"
     bordercolor="#000000"
     borderopacity="0.25"
     inkscape:showpageshadow="2"
     inkscape:pageopacity="0.0"
     inkscape:pagecheckerboard="0"
     inkscape:deskcolor="#d1d1d1"
     inkscape:zoom="0.28613281"
     inkscape:cx="686.74403"
     inkscape:cy="650.04779"
     inkscape:window-width="1440"
     inkscape:window-height="830"
     inkscape:window-x="-6"
     inkscape:window-y="-6"
     inkscape:window-maximized="1"
     inkscape:current-layer="svg1" />
  <path
     id="path7"
     style="fill:#ffffff;fill-opacity:1;stroke-width:0.571754"
     d="M 251.64062 0 C 249.66304 0 247.6875 1.9257812 247.6875 1.9257812 L 89.478516 156 C 89.478516 157.92591 87.5 159.84948 87.5 161.77539 L 87.5 568.14258 C 87.5 573.92032 91.455873 577.77539 97.388672 577.77539 L 277.42773 577.77539 L 277.42773 389.09375 L 276.18359 392.13672 C 264.42384 377.65711 252.66404 363.17694 240.9043 348.69727 L 239.18164 352.9082 A 10.804094 6.3907264 84.037768 0 1 228.20117 350.69336 L 208.75 293.90625 A 8.7406958 5.1702065 84.037768 0 1 212.28711 281.56641 A 8.7406958 5.1702065 84.037768 0 1 213.72656 281.74023 L 251.03906 294.84766 A 10.804094 6.3907264 84.037768 0 1 255.87109 312.10156 L 254.14844 316.3125 C 265.90828 330.79196 277.66784 345.27022 289.42773 359.75 L 283.50586 374.23242 L 373.43945 286.65039 C 373.37405 286.23782 373.3418 285.81372 373.3418 285.38281 L 373.3418 262.10742 C 373.3418 257.57675 377.08598 253.92773 381.73828 253.92773 L 405.63867 253.92773 C 406.08083 253.92773 406.51809 253.96189 406.94141 254.02539 L 437.61328 224.15234 C 437.61328 224.15234 439.59077 222.22656 441.56836 222.22656 L 443.54688 222.22656 L 445.52344 222.22656 L 522.57227 222.22656 L 522.57227 9.6289062 C 522.57226 3.8511744 518.61638 0 512.68359 0 L 255.5957 0 L 253.61914 0 L 251.64062 0 z M 283.50586 374.23242 L 279.40625 378.22461 C 279.40625 380.15051 277.42773 382.07799 277.42773 384.00391 L 277.42773 389.09375 L 283.50586 374.23242 z M 245.70898 32.740234 L 245.70898 154.07422 L 121.11914 154.07422 L 245.70898 32.740234 z M 143.85156 163.04688 L 176.77539 212.26367 L 178.77734 208.43359 A 10.804094 6.3907264 84.037768 0 1 189.6875 212.55859 L 205.64062 271.79688 A 8.7406958 5.1702065 84.037768 0 1 199.85742 282.86523 L 163.14062 263.36719 A 10.804094 6.3907264 84.037768 0 1 159.37891 245.56055 L 161.38086 241.73047 L 128.45703 192.51172 L 143.85156 163.04688 z M 295.62109 212.03906 L 319.52148 212.03906 C 324.17373 212.03906 327.91992 215.68615 327.91992 220.2168 L 327.91992 243.49219 C 327.91992 248.02286 324.17373 251.67188 319.52148 251.67188 L 295.62109 251.67188 C 290.96883 251.67188 287.22266 248.02285 287.22266 243.49219 L 287.22266 220.2168 C 287.22266 215.68614 290.96883 212.03906 295.62109 212.03906 z M 295.62109 253.92773 L 319.52148 253.92773 C 324.17373 253.92773 327.91992 257.57675 327.91992 262.10742 L 327.91992 285.38281 C 327.91992 289.91348 324.17373 293.56055 319.52148 293.56055 L 295.62109 293.56055 C 290.96883 293.56055 287.22266 289.91348 287.22266 285.38281 L 287.22266 262.10742 C 287.22266 257.57675 290.96883 253.92773 295.62109 253.92773 z M 338.63477 253.92773 L 362.53516 253.92773 C 367.18746 253.92773 370.93164 257.57675 370.93164 262.10742 L 370.93164 285.38281 C 370.93164 289.91348 367.18746 293.56055 362.53516 293.56055 L 338.63477 293.56055 C 333.98254 293.56055 330.23633 289.91348 330.23633 285.38281 L 330.23633 262.10742 C 330.23633 257.57675 333.98254 253.92773 338.63477 253.92773 z " />
  <g
     id="g16"
     style="fill:#ffffff;fill-opacity:1"
     transform="translate(6,-4)">
    <path
       id="path12"
       style="baseline-shift:baseline;display:inline;overflow:visible;vector-effect:none;fill:#ffffff;stroke-width:0.592303;paint-order:stroke markers fill;enable-background:accumulate;stop-color:#000000;fill-opacity:1"
       d="m 137.85156,545.04688 -15.39453,29.46484 32.92383,49.21875 -2.00195,3.83008 a 10.804094,6.3907264 84.037768 0 0 3.76171,17.80664 l 36.7168,19.49804 a 8.7406958,5.1702065 84.037768 0 0 5.7832,-11.06835 L 183.6875,594.55859 a 10.804094,6.3907264 84.037768 0 0 -10.91016,-4.125 l -2.00195,3.83008 z" />
    <path
       id="path15"
       style="baseline-shift:baseline;display:inline;overflow:visible;opacity:1;vector-effect:none;fill:#ffffff;paint-order:stroke markers fill;enable-background:accumulate;stop-color:#000000;stop-opacity:1;fill-opacity:1"
       d="m -199.95557,837.02299 a 11.349661,11.349661 13.282526 0 0 -10.53644,15.45935 l 29.5196,75.96185 a 14.028952,14.028952 67.5 0 0 23.46896,4.3414 l 4.72131,-5.20591 c 22.37371,20.28605 44.74744,40.57275 67.121181,60.85872 l 36.301218,-40.03984 C -71.733758,928.11235 -94.1074,907.82815 -116.48137,887.54236 l 4.72132,-5.20592 a 14.028952,14.028952 67.5 0 0 -6.61565,-22.93447 l -78.47671,-21.96033 a 11.349661,11.349661 13.282526 0 0 -3.10316,-0.41865 z"
       transform="matrix(0.45307421,-0.04731807,0.07999544,0.76596241,229.9238,12.976745)" />
  </g>
  <g
     id="g19"
     style="fill:#ffffff;fill-opacity:1"
     transform="translate(376,-516)">
    <path
       id="path18"
       style="baseline-shift:baseline;display:inline;overflow:visible;vector-effect:none;fill:#ffffff;stroke-width:0.592303;paint-order:stroke markers fill;enable-background:accumulate;stop-color:#000000;fill-opacity:1"
       d="m 137.85156,545.04688 -15.39453,29.46484 32.92383,49.21875 -2.00195,3.83008 a 10.804094,6.3907264 84.037768 0 0 3.76171,17.80664 l 36.7168,19.49804 a 8.7406958,5.1702065 84.037768 0 0 5.7832,-11.06835 L 183.6875,594.55859 a 10.804094,6.3907264 84.037768 0 0 -10.91016,-4.125 l -2.00195,3.83008 z" />
    <path
       id="path19"
       style="baseline-shift:baseline;display:inline;overflow:visible;opacity:1;vector-effect:none;fill:#ffffff;paint-order:stroke markers fill;enable-background:accumulate;stop-color:#000000;stop-opacity:1;fill-opacity:1"
       d="m -199.95557,837.02299 a 11.349661,11.349661 13.282526 0 0 -10.53644,15.45935 l 29.5196,75.96185 a 14.028952,14.028952 67.5 0 0 23.46896,4.3414 l 4.72131,-5.20591 c 22.37371,20.28605 44.74744,40.57275 67.121181,60.85872 l 36.301218,-40.03984 C -71.733758,928.11235 -94.1074,907.82815 -116.48137,887.54236 l 4.72132,-5.20592 a 14.028952,14.028952 67.5 0 0 -6.61565,-22.93447 l -78.47671,-21.96033 a 11.349661,11.349661 13.282526 0 0 -3.10316,-0.41865 z"
       transform="matrix(0.45307421,-0.04731807,0.07999544,0.76596241,229.9238,12.976745)" />
  </g>
  <path
     id="path1-5"
     style="overflow:hidden;fill:#ffffff;display:inline;fill-opacity:1;stroke-width:0.571754"
     d="m 441.56847,222.22634 c -1.97759,0 -3.95417,1.92685 -3.95417,1.92685 L 279.4064,378.22522 c 0,1.92591 -1.97851,3.85182 -1.97851,5.77774 v 406.36699 c 0,5.77774 3.95547,9.63003 9.88826,9.63003 h 415.29558 c 5.93279,0 9.88827,-3.85229 9.88827,-9.63003 V 231.85637 c 0,-5.77773 -3.95548,-9.63003 -9.88827,-9.63003 h -257.08767 -1.97708 z m -5.93268,32.74098 V 376.29978 H 311.04685 Z m -26.7723,296.16117 h 23.90064 c 4.65227,0 8.39836,3.64646 8.39836,8.17713 v 23.27739 c 0,4.53067 -3.74609,8.17855 -8.39836,8.17855 h -23.90064 c -4.65228,0 -8.39836,-3.64788 -8.39836,-8.17855 v -23.27739 c 0,-4.53067 3.74608,-8.17713 8.39836,-8.17713 z m 0,41.89 h 23.90064 c 4.65227,0 8.39836,3.64646 8.39836,8.17713 v 23.27598 c 0,4.53067 -3.74609,8.17854 -8.39836,8.17854 h -23.90064 c -4.65228,0 -8.39836,-3.64787 -8.39836,-8.17854 v -23.27598 c 0,-4.53067 3.74608,-8.17713 8.39836,-8.17713 z m 43.01435,0 h 23.90064 c 4.65226,0 8.39837,3.64646 8.39837,8.17713 v 23.27598 c 0,4.53067 -3.74611,8.17854 -8.39837,8.17854 h -23.90064 c -4.65227,0 -8.39835,-3.64787 -8.39835,-8.17854 v -23.27598 c 0,-4.53067 3.74608,-8.17713 8.39835,-8.17713 z m 0,41.97604 h 23.90064 c 4.65226,0 8.39837,3.64787 8.39837,8.17854 v 23.27599 c 0,4.53066 -3.74611,8.17854 -8.39837,8.17854 h -23.90064 c -4.65227,0 -8.39835,-3.64788 -8.39835,-8.17854 v -23.27599 c 0,-4.53067 3.74608,-8.17854 8.39835,-8.17854 z m 43.01293,0 h 23.90066 c 4.65225,0 8.39836,3.64787 8.39836,8.17854 v 23.27599 c 0,4.53066 -3.74611,8.17854 -8.39836,8.17854 h -23.90066 c -4.65225,0 -8.39693,-3.64788 -8.39693,-8.17854 v -23.27599 c 0,-4.53067 3.74468,-8.17854 8.39693,-8.17854 z"
     sodipodi:nodetypes="sccsssssssccsccccsssssssssssssssssssssssssssssssssssssssssssss" />
</svg>
