<?xml version="1.0" encoding="UTF-8" standalone="no"?>
<!-- Uploaded to: SVG Repo, www.svgrepo.com, Transformed by: SVG Repo Mixer Tools -->

<svg
   fill="#ffffff"
   width="800px"
   height="800px"
   viewBox="0 0 32 32"
   enable-background="new 0 0 32 32"
   id="Glyph"
   version="1.1"
   xml:space="preserve"
   stroke="#ffffff"
   stroke-width="0.00032"
   sodipodi:docname="show.svg"
   inkscape:version="1.4.2 (f4327f4, 2025-05-13)"
   xmlns:inkscape="http://www.inkscape.org/namespaces/inkscape"
   xmlns:sodipodi="http://sodipodi.sourceforge.net/DTD/sodipodi-0.dtd"
   xmlns="http://www.w3.org/2000/svg"
   xmlns:svg="http://www.w3.org/2000/svg"><defs
   id="defs1" /><sodipodi:namedview
   id="namedview1"
   pagecolor="#ffffff"
   bordercolor="#000000"
   borderopacity="0.25"
   inkscape:showpageshadow="2"
   inkscape:pageopacity="0.0"
   inkscape:pagecheckerboard="0"
   inkscape:deskcolor="#d1d1d1"
   inkscape:zoom="0.36625"
   inkscape:cx="572.01365"
   inkscape:cy="286.68942"
   inkscape:window-width="1440"
   inkscape:window-height="830"
   inkscape:window-x="-6"
   inkscape:window-y="-6"
   inkscape:window-maximized="1"
   inkscape:current-layer="Glyph" />

<g
   id="SVGRepo_bgCarrier"
   stroke-width="0" />

<g
   id="SVGRepo_tracerCarrier"
   stroke-linecap="round"
   stroke-linejoin="round" />

<g
   id="SVGRepo_iconCarrier"
   inkscape:label="SVGRepo_iconCarrier"
   transform="translate(0,1.92)">

<path
   style="clip-rule:evenodd;fill-rule:evenodd;stroke-width:0.000322478;stroke-linejoin:round;stroke-miterlimit:2"
   d="M 7.766,9.6497599 4.567,6.3979851 C 3.982,5.8028758 3.032,5.8028758 2.446,6.3969696 1.86,6.9910633 1.86,7.955831 2.445,8.5509403 l 2.579,2.6211217"
   id="path3" /><path
   style="clip-rule:evenodd;fill-rule:evenodd;stroke-width:0.000322478;stroke-linejoin:round;stroke-miterlimit:2"
   d="M 17.5,7.7302767 V 4.107828 c 0,-0.8408711 -0.672,-1.5233173 -1.5,-1.5233173 -0.828,0 -1.5,0.6824462 -1.5,1.5233173 v 3.6265109"
   id="path2" /><path
   style="clip-rule:evenodd;fill-rule:evenodd;stroke-width:0.000322478;stroke-linejoin:round;stroke-miterlimit:2"
   d="M 27.868,11.756 30.021,9.5664852 C 30.606,8.9713759 30.606,8.0066082 30.02,7.4125145 29.434,6.8184207 28.484,6.8184207 27.899,7.41353 l -2.666,2.709474"
   id="path1" /><path
   d="M 31.386,15.675 C 29.394,9.888 22.35,7.6 16,7.6 9.65,7.6 2.606,9.888 0.614,15.675 c -0.072,0.21 -0.072,0.44 0,0.65 C 2.606,22.112 9.65,24.4 16,24.4 c 6.35,0 13.394,-2.288 15.386,-8.075 0.072,-0.21 0.072,-0.44 0,-0.65 z M 16,22 c -3.309,0 -6,-2.691 -6,-6 0,-3.309 2.691,-6 6,-6 3.309,0 6,2.691 6,6 0,3.309 -2.691,6 -6,6 z"
   id="XMLID_320_"
   sodipodi:nodetypes="csccsccsssss" />

</g>

</svg>
