<?xml version="1.0" encoding="UTF-8" standalone="no"?>
<svg
   width="32px"
   height="px"
   viewBox="0 0 32 32"
   version="1.1"
   id="svg2"
   sodipodi:docname="draw.svg"
   inkscape:version="1.4.2 (f4327f4, 2025-05-13)"
   xmlns:inkscape="http://www.inkscape.org/namespaces/inkscape"
   xmlns:sodipodi="http://sodipodi.sourceforge.net/DTD/sodipodi-0.dtd"
   xmlns="http://www.w3.org/2000/svg"
   xmlns:svg="http://www.w3.org/2000/svg">
  <defs
     id="defs2" />
  <sodipodi:namedview
     id="namedview2"
     pagecolor="#ffffff"
     bordercolor="#000000"
     borderopacity="0.25"
     inkscape:showpageshadow="2"
     inkscape:pageopacity="0.0"
     inkscape:pagecheckerboard="0"
     inkscape:deskcolor="#d1d1d1"
     inkscape:zoom="9.15625"
     inkscape:cx="13.924915"
     inkscape:cy="25.665529"
     inkscape:window-width="1440"
     inkscape:window-height="830"
     inkscape:window-x="-6"
     inkscape:window-y="-6"
     inkscape:window-maximized="1"
     inkscape:current-layer="svg2" />
  <g
     id="surface1"
     style="fill:#ffffff;stroke:none;fill-opacity:1"
     transform="scale(0.99995271)">
    <path
       style="fill:#ffffff;fill-opacity:1;fill-rule:nonzero;stroke:none"
       d="M 13.625,24.109375 25.980469,11.753906 C 24.753906,11.507812 23.363281,10.960938 22.203125,9.800781 21.039062,8.636719 20.492188,7.246094 20.246094,6.019531 L 7.890625,18.375 c -0.964844,0.964844 -1.445313,1.445312 -1.882813,1.957031 -0.515624,0.597657 -0.984374,1.226563 -1.398437,1.875 -0.351563,0.546875 -0.648437,1.109375 -1.246094,2.238281 L 0.21875,30.398438 c -0.2929688,0.554687 -0.2929688,1.089843 0,1.382812 0.292969,0.292969 0.828125,0.292969 1.382812,0 l 5.953126,-3.144531 c 1.128906,-0.597657 1.691406,-0.894531 2.238281,-1.246094 0.648437,-0.414063 1.277343,-0.882813 1.875,-1.398437 0.511719,-0.4375 0.992187,-0.921876 1.957031,-1.882813 z m 0,0"
       id="path1" />
    <path
       style="fill:#ffffff;fill-opacity:1;fill-rule:nonzero;stroke:none"
       d="M 29.40625,8.324219 C 31.972656,5.757812 32.769531,2.398438 31.1875,0.8125 29.601562,-0.769531 26.238281,0.0273438 23.675781,2.59375 l -1.484375,1.480469 c 0.0078,0.046875 0.01172,0.09375 0.01563,0.140625 0.140625,1.160156 0.578125,2.621094 1.765625,3.8125 1.191406,1.191406 2.652344,1.625 3.816406,1.765625 0.04297,0.00391 0.08984,0.00781 0.136719,0.015625 z m 0,0"
       id="path2" />
  </g>
</svg>
