<?xml version="1.0" encoding="UTF-8"?>
<svg xmlns="http://www.w3.org/2000/svg" xmlns:xlink="http://www.w3.org/1999/xlink" width="32px" height="px" viewBox="0 0 32 32" version="1.1">
<g id="surface1">
<path style=" stroke:none;fill-rule:nonzero;fill:rgb(100%,100%,100%);fill-opacity:1;" d="M 31.054688 12.105469 L 22.015625 3.066406 C 20.75 1.84375 18.75 1.84375 17.484375 3.066406 L 7.679688 12.863281 L 21.253906 26.4375 L 31.054688 16.632812 C 31.660156 16.035156 32 15.21875 32 14.367188 C 32 13.515625 31.660156 12.699219 31.054688 12.101562 Z M 31.054688 12.105469 "/>
<path style=" stroke:none;fill-rule:nonzero;fill:rgb(100%,100%,100%);fill-opacity:1;" d="M 29.863281 27.714844 L 19.519531 27.714844 L 6.171875 14.371094 L 2.402344 18.140625 C 1.152344 19.390625 1.152344 21.417969 2.402344 22.667969 L 7.449219 27.714844 L 1.066406 27.714844 C 0.476562 27.714844 0 28.195312 0 28.78125 C 0 29.371094 0.476562 29.851562 1.066406 29.851562 L 29.863281 29.851562 C 30.453125 29.851562 30.929688 29.371094 30.929688 28.78125 C 30.929688 28.195312 30.453125 27.714844 29.863281 27.714844 Z M 29.863281 27.714844 "/>
</g>
</svg>
