<?xml version="1.0" encoding="UTF-8" standalone="no"?>
<!-- Uploaded to: SVG Repo, www.svgrepo.com, Generator: SVG Repo Mixer Tools -->

<svg
   fill="#000000"
   height="32"
   width="32"
   version="1.1"
   id="Layer_1"
   viewBox="0 0 20.48 20.48"
   xml:space="preserve"
   sodipodi:docname="expand-svgrepo-com.svg"
   inkscape:version="1.4.2 (f4327f4, 2025-05-13)"
   xmlns:inkscape="http://www.inkscape.org/namespaces/inkscape"
   xmlns:sodipodi="http://sodipodi.sourceforge.net/DTD/sodipodi-0.dtd"
   xmlns="http://www.w3.org/2000/svg"
   xmlns:svg="http://www.w3.org/2000/svg"><defs
   id="defs5" /><sodipodi:namedview
   id="namedview5"
   pagecolor="#ffffff"
   bordercolor="#000000"
   borderopacity="0.25"
   inkscape:showpageshadow="2"
   inkscape:pageopacity="0.0"
   inkscape:pagecheckerboard="0"
   inkscape:deskcolor="#d1d1d1"
   inkscape:zoom="1.465"
   inkscape:cx="-11.262799"
   inkscape:cy="51.194539"
   inkscape:window-width="1440"
   inkscape:window-height="830"
   inkscape:window-x="-6"
   inkscape:window-y="-6"
   inkscape:window-maximized="1"
   inkscape:current-layer="Layer_1" />
<g
   id="g5"
   transform="scale(0.04)"
   style="fill:#ffffff;fill-opacity:1">
	<g
   id="g4"
   style="fill:#ffffff;fill-opacity:1">
		<g
   id="g3"
   style="fill:#ffffff;fill-opacity:1">
			<path
   d="M 0,0 V 512 H 512 V 0 Z M 469.333,469.333 H 42.667 V 42.667 h 426.667 v 426.666 z"
   id="path1"
   style="fill:#ffffff;fill-opacity:1" />
			<path
   d="m 106.667,234.667 c 11.782,0 21.333,-9.551 21.333,-21.333 V 158.17 l 70.248,70.248 c 8.331,8.331 21.839,8.331 30.17,0 8.331,-8.331 8.331,-21.839 0,-30.17 L 158.17,128 h 55.163 c 11.782,0 21.333,-9.551 21.333,-21.333 0,-11.782 -9.551,-21.333 -21.333,-21.333 H 106.667 c -0.703,0 -1.405,0.037 -2.105,0.106 -0.318,0.031 -0.627,0.091 -0.94,0.136 -0.375,0.054 -0.75,0.098 -1.122,0.171 -0.359,0.071 -0.708,0.17 -1.061,0.259 -0.322,0.081 -0.645,0.151 -0.964,0.248 -0.346,0.105 -0.68,0.234 -1.018,0.356 -0.318,0.114 -0.639,0.219 -0.953,0.349 -0.316,0.131 -0.618,0.284 -0.926,0.43 -0.323,0.152 -0.649,0.296 -0.966,0.465 -0.295,0.158 -0.575,0.338 -0.861,0.509 -0.311,0.186 -0.626,0.361 -0.929,0.564 -0.316,0.211 -0.613,0.447 -0.917,0.674 -0.253,0.19 -0.513,0.365 -0.759,0.568 -1.087,0.892 -2.085,1.889 -2.977,2.977 -0.202,0.246 -0.378,0.506 -0.568,0.759 -0.228,0.304 -0.463,0.601 -0.674,0.917 -0.203,0.303 -0.379,0.618 -0.564,0.929 -0.171,0.286 -0.351,0.566 -0.509,0.861 -0.169,0.317 -0.313,0.643 -0.465,0.966 -0.145,0.308 -0.299,0.611 -0.43,0.926 -0.13,0.314 -0.235,0.635 -0.349,0.953 -0.122,0.338 -0.251,0.672 -0.356,1.018 -0.096,0.318 -0.167,0.642 -0.248,0.964 -0.089,0.353 -0.188,0.701 -0.259,1.061 -0.074,0.372 -0.118,0.748 -0.171,1.122 -0.045,0.314 -0.104,0.622 -0.136,0.94 -0.068,0.693 -0.105,1.388 -0.105,2.084 0,0.007 -10e-4,0.014 -10e-4,0.021 v 106.667 c -0.001,11.781 9.551,21.333 21.333,21.333 z"
   id="path2"
   style="fill:#ffffff;fill-opacity:1" />
			<path
   d="m 277.333,405.333 c 0,11.782 9.551,21.333 21.333,21.333 h 106.667 c 0.703,0 1.405,-0.037 2.105,-0.106 0.316,-0.031 0.622,-0.09 0.933,-0.135 0.377,-0.054 0.755,-0.098 1.13,-0.172 0.358,-0.071 0.705,-0.169 1.056,-0.258 0.323,-0.081 0.648,-0.152 0.968,-0.249 0.345,-0.104 0.677,-0.234 1.014,-0.355 0.32,-0.115 0.642,-0.22 0.957,-0.35 0.314,-0.13 0.615,-0.283 0.921,-0.428 0.325,-0.153 0.653,-0.297 0.971,-0.468 0.293,-0.157 0.572,-0.336 0.857,-0.506 0.312,-0.186 0.628,-0.363 0.932,-0.566 0.315,-0.211 0.611,-0.445 0.913,-0.671 0.255,-0.191 0.516,-0.368 0.764,-0.571 0.535,-0.439 1.05,-0.903 1.54,-1.392 0.008,-0.007 0.016,-0.014 0.023,-0.021 0.007,-0.007 0.014,-0.016 0.021,-0.023 0.488,-0.49 0.952,-1.004 1.392,-1.54 0.204,-0.248 0.38,-0.509 0.571,-0.764 0.226,-0.302 0.461,-0.598 0.671,-0.913 0.204,-0.304 0.38,-0.62 0.566,-0.932 0.17,-0.285 0.349,-0.564 0.506,-0.857 0.17,-0.318 0.315,-0.646 0.468,-0.971 0.145,-0.306 0.297,-0.607 0.428,-0.921 0.13,-0.315 0.236,-0.637 0.35,-0.957 0.121,-0.337 0.25,-0.669 0.355,-1.014 0.097,-0.32 0.168,-0.645 0.249,-0.968 0.089,-0.351 0.187,-0.698 0.258,-1.056 0.074,-0.375 0.118,-0.753 0.172,-1.13 0.044,-0.311 0.104,-0.618 0.135,-0.933 0.069,-0.701 0.106,-1.403 0.106,-2.107 V 298.667 c 0,-11.782 -9.551,-21.333 -21.333,-21.333 -11.782,0 -21.333,9.551 -21.333,21.333 v 55.163 l -70.248,-70.248 c -8.331,-8.331 -21.839,-8.331 -30.17,0 -8.331,8.331 -8.331,21.839 0,30.17 L 353.83,384 h -55.163 c -11.782,0 -21.334,9.551 -21.334,21.333 z"
   id="path3"
   style="fill:#ffffff;fill-opacity:1" />
		</g>
	</g>
</g>
</svg>
