<?xml version="1.0" encoding="UTF-8" standalone="no"?>
<svg
   width="32px"
   height="px"
   viewBox="0 0 32 32"
   version="1.1"
   id="svg3"
   sodipodi:docname="global_erase.svg"
   inkscape:version="1.4.2 (f4327f4, 2025-05-13)"
   xmlns:inkscape="http://www.inkscape.org/namespaces/inkscape"
   xmlns:sodipodi="http://sodipodi.sourceforge.net/DTD/sodipodi-0.dtd"
   xmlns="http://www.w3.org/2000/svg"
   xmlns:svg="http://www.w3.org/2000/svg">
  <defs
     id="defs3" />
  <sodipodi:namedview
     id="namedview3"
     pagecolor="#ffffff"
     bordercolor="#000000"
     borderopacity="0.25"
     inkscape:showpageshadow="2"
     inkscape:pageopacity="0.0"
     inkscape:pagecheckerboard="0"
     inkscape:deskcolor="#d1d1d1"
     inkscape:zoom="12.948893"
     inkscape:cx="19.036376"
     inkscape:cy="17.530456"
     inkscape:window-width="1440"
     inkscape:window-height="830"
     inkscape:window-x="-6"
     inkscape:window-y="-6"
     inkscape:window-maximized="1"
     inkscape:current-layer="svg3" />
  <g
     id="surface1"
     style="fill:#ffffff;stroke:none;fill-opacity:1"
     transform="translate(1.3531574e-4,0.14870845)">
    <path
       style="fill:#ffffff;fill-opacity:1;fill-rule:nonzero;stroke:none"
       d="M 31.25,16.781467 24.085938,9.6134978 c -1.003907,-0.964844 -2.59375,-0.964844 -3.59375,0 L 12.71875,17.38303 23.480469,28.144748 31.25,20.371311 C 31.730469,19.898654 32,19.250217 32,18.574436 32,17.902561 31.730469,17.254123 31.25,16.781467 Z m 0,0"
       id="path1" />
    <path
       style="fill:#ffffff;fill-opacity:1;fill-rule:nonzero;stroke:none"
       d="M 30.304688,29.160373 H 22.105469 L 11.523438,18.578342 8.535156,21.566623 c -0.992187,0.992188 -0.992187,2.601563 0,3.589844 l 4,4.003906 H 7.476562 c -0.46875,0 -0.847656,0.378907 -0.847656,0.84375 0,0.46875 0.378906,0.847657 0.847656,0.847657 h 22.828126 c 0.46875,0 0.847656,-0.378907 0.847656,-0.847657 0,-0.464843 -0.378906,-0.84375 -0.847656,-0.84375 z m 0,0"
       id="path2" />
    <path
       style="fill:#ffffff;fill-opacity:1;fill-rule:nonzero;stroke:none"
       d="M 7.074219,14.183594 C 3.394531,14.40625 0.234375,11.605469 0.0117188,7.925781 -0.207031,4.25 2.59375,1.085938 6.269531,0.863281 c 3.679688,-0.21875 6.839844,2.582031 7.0625,6.257813 0.222657,3.679687 -2.578125,6.839844 -6.257812,7.0625 z M 11.0625,9.902344 11.058594,9.832031 C 11.019531,9.21875 11.003906,8.9375 10.554688,8.714844 9.863281,8.429688 9.695312,8.363281 9.457031,8.058594 9.125,7.613281 8.941406,7.371094 8.316406,7.507812 7.085938,7.78125 7.007812,8.003906 6.976562,8.378906 L 6.96875,8.4375 c -0.046875,0.546875 -0.050781,0.726562 0.1875,0.949219 0.898438,0.832031 1.441406,1.441406 1.617188,1.804687 0.082031,0.175782 0.308593,0.714844 0.210937,1.269532 2.070313,-1.871094 2.101563,-2.183594 2.078125,-2.558594 z M 6.34375,2.085938 C 4.800781,2.179688 3.445312,2.90625 2.519531,3.996094 2.640625,4.074219 2.75,4.183594 2.832031,4.335938 2.984375,4.632812 3.003906,4.945312 3.019531,5.222656 3.035156,5.441406 3.046875,5.648438 3.128906,5.796875 3.238281,5.996094 3.65625,6.058594 4.027344,6.113281 4.160156,6.132812 4.292969,6.152344 4.417969,6.179688 4.761719,6.25 5.042969,6.539062 5.265625,6.769531 5.359375,6.863281 5.496094,7.003906 5.5625,7.039062 5.59375,7.011719 5.691406,6.890625 5.734375,6.695312 5.765625,6.546875 5.746094,6.417969 5.683594,6.351562 5.285156,5.933594 5.253906,5.085938 5.351562,4.765625 5.5,4.261719 6.070312,4.265625 6.484375,4.265625 6.640625,4.269531 6.785156,4.269531 6.894531,4.25 7.304688,4.171875 7.394531,3.535156 7.480469,3.40625 7.65625,3.125 8.226562,2.6875 8.582031,2.417969 Z m 0,0"
       id="path3" />
  </g>
</svg>
