<?xml version="1.0" encoding="UTF-8" standalone="no"?>
<!-- Uploaded to: SVG Repo, www.svgrepo.com, Generator: SVG Repo Mixer Tools -->

<svg
   width="32"
   height="32"
   viewBox="0 0 0.64 0.64"
   version="1.1"
   id="svg59"
   sodipodi:docname="margin-svgrepo-com.svg"
   inkscape:version="1.4.2 (f4327f4, 2025-05-13)"
   xmlns:inkscape="http://www.inkscape.org/namespaces/inkscape"
   xmlns:sodipodi="http://sodipodi.sourceforge.net/DTD/sodipodi-0.dtd"
   xmlns="http://www.w3.org/2000/svg"
   xmlns:svg="http://www.w3.org/2000/svg">
  <defs
     id="defs59" />
  <sodipodi:namedview
     id="namedview59"
     pagecolor="#ffffff"
     bordercolor="#000000"
     borderopacity="0.25"
     inkscape:showpageshadow="2"
     inkscape:pageopacity="0.0"
     inkscape:pagecheckerboard="0"
     inkscape:deskcolor="#d1d1d1"
     inkscape:zoom="4.1436457"
     inkscape:cx="12.911335"
     inkscape:cy="39.33734"
     inkscape:window-width="1440"
     inkscape:window-height="830"
     inkscape:window-x="-6"
     inkscape:window-y="-6"
     inkscape:window-maximized="1"
     inkscape:current-layer="svg59" />
  <g
     id="g59"
     transform="scale(0.04)">
    <path
       fill="#444"
       d="M 0,0 H 1 V 1 H 0 Z"
       id="path1"
       style="fill:#ffffff;fill-opacity:1" />
    <path
       fill="#444"
       d="M 2,0 H 3 V 1 H 2 Z"
       id="path2"
       style="fill:#ffffff;fill-opacity:1" />
    <path
       fill="#444"
       d="M 1,1 H 2 V 2 H 1 Z"
       id="path3"
       style="fill:#ffffff;fill-opacity:1" />
    <path
       fill="#444"
       d="M 0,2 H 1 V 3 H 0 Z"
       id="path4"
       style="fill:#ffffff;fill-opacity:1" />
    <path
       fill="#444"
       d="M 2,2 H 3 V 3 H 2 Z"
       id="path5"
       style="fill:#ffffff;fill-opacity:1" />
    <path
       fill="#444"
       d="M 1,3 H 2 V 4 H 1 Z"
       id="path6"
       style="fill:#ffffff;fill-opacity:1" />
    <path
       fill="#444"
       d="M 0,4 H 1 V 5 H 0 Z"
       id="path7"
       style="fill:#ffffff;fill-opacity:1" />
    <path
       fill="#444"
       d="M 1,5 H 2 V 6 H 1 Z"
       id="path8"
       style="fill:#ffffff;fill-opacity:1" />
    <path
       fill="#444"
       d="M 0,6 H 1 V 7 H 0 Z"
       id="path9"
       style="fill:#ffffff;fill-opacity:1" />
    <path
       fill="#444"
       d="M 1,7 H 2 V 8 H 1 Z"
       id="path10"
       style="fill:#ffffff;fill-opacity:1" />
    <path
       fill="#444"
       d="M 0,8 H 1 V 9 H 0 Z"
       id="path11"
       style="fill:#ffffff;fill-opacity:1" />
    <path
       fill="#444"
       d="m 1,9 h 1 v 1 H 1 Z"
       id="path12"
       style="fill:#ffffff;fill-opacity:1" />
    <path
       fill="#444"
       d="m 0,10 h 1 v 1 H 0 Z"
       id="path13"
       style="fill:#ffffff;fill-opacity:1" />
    <path
       fill="#444"
       d="m 1,11 h 1 v 1 H 1 Z"
       id="path14"
       style="fill:#ffffff;fill-opacity:1" />
    <path
       fill="#444"
       d="m 0,12 h 1 v 1 H 0 Z"
       id="path15"
       style="fill:#ffffff;fill-opacity:1" />
    <path
       fill="#444"
       d="m 1,13 h 1 v 1 H 1 Z"
       id="path16"
       style="fill:#ffffff;fill-opacity:1" />
    <path
       fill="#444"
       d="m 0,14 h 1 v 1 H 0 Z"
       id="path17"
       style="fill:#ffffff;fill-opacity:1" />
    <path
       fill="#444"
       d="m 2,14 h 1 v 1 H 2 Z"
       id="path18"
       style="fill:#ffffff;fill-opacity:1" />
    <path
       fill="#444"
       d="m 1,15 h 1 v 1 H 1 Z"
       id="path19"
       style="fill:#ffffff;fill-opacity:1" />
    <path
       fill="#444"
       d="m 3,15 h 1 v 1 H 3 Z"
       id="path20"
       style="fill:#ffffff;fill-opacity:1" />
    <path
       fill="#444"
       d="m 5,15 h 1 v 1 H 5 Z"
       id="path21"
       style="fill:#ffffff;fill-opacity:1" />
    <path
       fill="#444"
       d="M 4,0 H 5 V 1 H 4 Z"
       id="path22"
       style="fill:#ffffff;fill-opacity:1" />
    <path
       fill="#444"
       d="M 3,1 H 4 V 2 H 3 Z"
       id="path23"
       style="fill:#ffffff;fill-opacity:1" />
    <path
       fill="#444"
       d="M 5,1 H 6 V 2 H 5 Z"
       id="path24"
       style="fill:#ffffff;fill-opacity:1" />
    <path
       fill="#444"
       d="m 4,14 h 1 v 1 H 4 Z"
       id="path25"
       style="fill:#ffffff;fill-opacity:1" />
    <path
       fill="#444"
       d="M 6,0 H 7 V 1 H 6 Z"
       id="path26"
       style="fill:#ffffff;fill-opacity:1" />
    <path
       fill="#444"
       d="M 8,0 H 9 V 1 H 8 Z"
       id="path27"
       style="fill:#ffffff;fill-opacity:1" />
    <path
       fill="#444"
       d="M 7,1 H 8 V 2 H 7 Z"
       id="path28"
       style="fill:#ffffff;fill-opacity:1" />
    <path
       fill="#444"
       d="m 6,14 h 1 v 1 H 6 Z"
       id="path29"
       style="fill:#ffffff;fill-opacity:1" />
    <path
       fill="#444"
       d="m 8,14 h 1 v 1 H 8 Z"
       id="path30"
       style="fill:#ffffff;fill-opacity:1" />
    <path
       fill="#444"
       d="m 7,15 h 1 v 1 H 7 Z"
       id="path31"
       style="fill:#ffffff;fill-opacity:1" />
    <path
       fill="#444"
       d="m 9,15 h 1 v 1 H 9 Z"
       id="path32"
       style="fill:#ffffff;fill-opacity:1" />
    <path
       fill="#444"
       d="m 11,15 h 1 v 1 h -1 z"
       id="path33"
       style="fill:#ffffff;fill-opacity:1" />
    <path
       fill="#444"
       d="m 10,0 h 1 v 1 h -1 z"
       id="path34"
       style="fill:#ffffff;fill-opacity:1" />
    <path
       fill="#444"
       d="m 9,1 h 1 V 2 H 9 Z"
       id="path35"
       style="fill:#ffffff;fill-opacity:1" />
    <path
       fill="#444"
       d="m 11,1 h 1 v 1 h -1 z"
       id="path36"
       style="fill:#ffffff;fill-opacity:1" />
    <path
       fill="#444"
       d="m 10,14 h 1 v 1 h -1 z"
       id="path37"
       style="fill:#ffffff;fill-opacity:1" />
    <path
       fill="#444"
       d="m 12,0 h 1 v 1 h -1 z"
       id="path38"
       style="fill:#ffffff;fill-opacity:1" />
    <path
       fill="#444"
       d="m 14,0 h 1 v 1 h -1 z"
       id="path39"
       style="fill:#ffffff;fill-opacity:1" />
    <path
       fill="#444"
       d="m 13,1 h 1 v 1 h -1 z"
       id="path40"
       style="fill:#ffffff;fill-opacity:1" />
    <path
       fill="#444"
       d="M 13,2 H 12 V 3 H 11 V 2 H 10 V 3 H 9 V 2 H 8 V 3 H 7 V 2 H 6 V 3 H 5 V 2 H 4 V 3 H 3 V 4 H 2 V 5 H 3 V 6 H 2 V 7 H 3 V 8 H 2 v 1 h 1 v 1 H 2 v 1 h 1 v 1 H 2 v 1 h 1 v 1 h 1 v -1 h 1 v 1 h 1 v -1 h 1 v 1 h 1 v -1 h 1 v 1 h 1 v -1 h 1 v 1 h 1 v -1 h 1 v -1 h 1 v -1 h -1 v -1 h 1 V 9 H 13 V 8 h 1 V 7 H 13 V 6 h 1 V 5 H 13 V 4 h 1 V 3 H 13 Z M 12,12 H 4 V 4 h 8 z"
       id="path41"
       style="fill:#ffffff;fill-opacity:1" />
    <path
       fill="#444"
       d="m 14,2 h 1 v 1 h -1 z"
       id="path42"
       style="fill:#ffffff;fill-opacity:1" />
    <path
       fill="#444"
       d="m 14,4 h 1 v 1 h -1 z"
       id="path43"
       style="fill:#ffffff;fill-opacity:1" />
    <path
       fill="#444"
       d="m 14,6 h 1 v 1 h -1 z"
       id="path44"
       style="fill:#ffffff;fill-opacity:1" />
    <path
       fill="#444"
       d="m 14,8 h 1 v 1 h -1 z"
       id="path45"
       style="fill:#ffffff;fill-opacity:1" />
    <path
       fill="#444"
       d="m 14,10 h 1 v 1 h -1 z"
       id="path46"
       style="fill:#ffffff;fill-opacity:1" />
    <path
       fill="#444"
       d="m 14,12 h 1 v 1 h -1 z"
       id="path47"
       style="fill:#ffffff;fill-opacity:1" />
    <path
       fill="#444"
       d="m 13,13 h 1 v 1 h -1 z"
       id="path48"
       style="fill:#ffffff;fill-opacity:1" />
    <path
       fill="#444"
       d="m 12,14 h 1 v 1 h -1 z"
       id="path49"
       style="fill:#ffffff;fill-opacity:1" />
    <path
       fill="#444"
       d="m 14,14 h 1 v 1 h -1 z"
       id="path50"
       style="fill:#ffffff;fill-opacity:1" />
    <path
       fill="#444"
       d="m 13,15 h 1 v 1 h -1 z"
       id="path51"
       style="fill:#ffffff;fill-opacity:1" />
    <path
       fill="#444"
       d="m 15,15 h 1 v 1 h -1 z"
       id="path52"
       style="fill:#ffffff;fill-opacity:1" />
    <path
       fill="#444"
       d="m 15,1 h 1 v 1 h -1 z"
       id="path53"
       style="fill:#ffffff;fill-opacity:1" />
    <path
       fill="#444"
       d="m 15,3 h 1 v 1 h -1 z"
       id="path54"
       style="fill:#ffffff;fill-opacity:1" />
    <path
       fill="#444"
       d="m 15,5 h 1 v 1 h -1 z"
       id="path55"
       style="fill:#ffffff;fill-opacity:1" />
    <path
       fill="#444"
       d="m 15,7 h 1 v 1 h -1 z"
       id="path56"
       style="fill:#ffffff;fill-opacity:1" />
    <path
       fill="#444"
       d="m 15,9 h 1 v 1 h -1 z"
       id="path57"
       style="fill:#ffffff;fill-opacity:1" />
    <path
       fill="#444"
       d="m 15,11 h 1 v 1 h -1 z"
       id="path58"
       style="fill:#ffffff;fill-opacity:1" />
    <path
       fill="#444"
       d="m 15,13 h 1 v 1 h -1 z"
       id="path59"
       style="fill:#ffffff;fill-opacity:1" />
  </g>
</svg>
