<?xml version="1.0" encoding="UTF-8"?>
<svg xmlns="http://www.w3.org/2000/svg" xmlns:xlink="http://www.w3.org/1999/xlink" width="32px" height="32px" viewBox="0 0 32 32" version="1.1">
<g id="surface1">
<path style="fill-rule:nonzero;fill:rgb(100%,100%,100%);fill-opacity:1;stroke-width:1;stroke-linecap:butt;stroke-linejoin:miter;stroke:rgb(100%,100%,100%);stroke-opacity:1;stroke-miterlimit:4;" d="M 7 23.375 L 10.625 27 C 10.78125 27.15625 10.96875 27.25 11.1875 27.21875 C 11.4375 27.21875 11.65625 27.15625 11.8125 27 L 15.40625 23.375 C 15.90625 22.875 15.75 22.5 15.03125 22.5 L 12.59375 22.5 L 12.59375 17.375 L 17.65625 17.375 L 17.65625 19.875 C 17.65625 20.59375 18.09375 20.71875 18.59375 20.21875 L 22.1875 16.625 C 22.34375 16.46875 22.40625 16.28125 22.40625 16.03125 C 22.4375 15.8125 22.34375 15.59375 22.1875 15.40625 L 18.59375 11.84375 C 18.09375 11.34375 17.65625 11.46875 17.6875 12.1875 L 17.6875 14.625 L 12.59375 14.625 L 12.59375 9.5625 L 15.03125 9.5625 C 15.753906 9.5625 15.90625 9.15625 15.40625 8.65625 L 11.8125 5.09375 C 11.5 4.78125 10.9375 4.75 10.625 5.09375 L 7 8.65625 C 6.5 9.15625 6.65625 9.5625 7.375 9.5625 L 9.8125 9.5625 L 9.8125 14.59375 L 4.78125 14.59375 L 4.78125 12.1875 C 4.78125 11.46875 4.34375 11.34375 3.84375 11.84375 L 0.25 15.40625 C 0.09375 15.5625 0.03125 15.78125 0 16.03125 C 0 16.28125 0.09375 16.46875 0.25 16.625 L 3.84375 20.21875 C 4.34375 20.71875 4.75 20.59375 4.75 19.875 L 4.75 17.40625 L 9.8125 17.40625 L 9.8125 22.5 L 7.375 22.5 C 6.65625 22.5 6.5 22.875 7 23.375 Z M 7 23.375 "/>
</g>
</svg>
