<?xml version="1.0" encoding="UTF-8" standalone="no"?>
<svg
   width="32px"
   height="32px"
   viewBox="0 0 32 32"
   version="1.1"
   id="svg1"
   sodipodi:docname="move.svg"
   inkscape:version="1.4.2 (f4327f4, 2025-05-13)"
   xmlns:inkscape="http://www.inkscape.org/namespaces/inkscape"
   xmlns:sodipodi="http://sodipodi.sourceforge.net/DTD/sodipodi-0.dtd"
   xmlns="http://www.w3.org/2000/svg"
   xmlns:svg="http://www.w3.org/2000/svg">
  <defs
     id="defs1" />
  <sodipodi:namedview
     id="namedview1"
     pagecolor="#ffffff"
     bordercolor="#000000"
     borderopacity="0.25"
     inkscape:showpageshadow="2"
     inkscape:pageopacity="0.0"
     inkscape:pagecheckerboard="0"
     inkscape:deskcolor="#d1d1d1"
     inkscape:zoom="9.15625"
     inkscape:cx="28.232082"
     inkscape:cy="17.146758"
     inkscape:window-width="1440"
     inkscape:window-height="830"
     inkscape:window-x="-6"
     inkscape:window-y="-6"
     inkscape:window-maximized="1"
     inkscape:current-layer="svg1" />
  <g
     id="surface1"
     transform="matrix(1.3667929,0,0,1.368492,0.68382111,-5.9403145)">
    <path
       style="fill:#ffffff;fill-opacity:1;fill-rule:nonzero;stroke:#ffffff;stroke-width:1;stroke-linecap:butt;stroke-linejoin:miter;stroke-miterlimit:4;stroke-opacity:1"
       d="M 7,23.375 10.625,27 c 0.15625,0.15625 0.34375,0.25 0.5625,0.21875 0.25,0 0.46875,-0.0625 0.625,-0.21875 l 3.59375,-3.625 c 0.5,-0.5 0.34375,-0.875 -0.375,-0.875 h -2.4375 v -5.125 h 5.0625 v 2.5 c 0,0.71875 0.4375,0.84375 0.9375,0.34375 L 22.1875,16.625 c 0.15625,-0.15625 0.21875,-0.34375 0.21875,-0.59375 0.03125,-0.21875 -0.0625,-0.4375 -0.21875,-0.625 l -3.59375,-3.5625 c -0.5,-0.5 -0.9375,-0.375 -0.90625,0.34375 V 14.625 H 12.59375 V 9.5625 h 2.4375 c 0.722656,0 0.875,-0.40625 0.375,-0.90625 L 11.8125,5.09375 C 11.5,4.78125 10.9375,4.75 10.625,5.09375 L 7,8.65625 c -0.5,0.5 -0.34375,0.90625 0.375,0.90625 h 2.4375 v 5.03125 H 4.78125 V 12.1875 c 0,-0.71875 -0.4375,-0.84375 -0.9375,-0.34375 L 0.25,15.40625 c -0.15625,0.15625 -0.21875,0.375 -0.25,0.625 0,0.25 0.09375,0.4375 0.25,0.59375 l 3.59375,3.59375 c 0.5,0.5 0.90625,0.375 0.90625,-0.34375 V 17.40625 H 9.8125 V 22.5 H 7.375 C 6.65625,22.5 6.5,22.875 7,23.375 Z m 0,0"
       id="path1" />
  </g>
</svg>
