<?xml version="1.0" encoding="UTF-8" standalone="no"?>
<!-- Uploaded to: SVG Repo, www.svgrepo.com, Generator: SVG Repo Mixer Tools -->

<svg
   height="32"
   width="32"
   version="1.1"
   id="_x32_"
   viewBox="0 0 20.48 20.48"
   xml:space="preserve"
   sodipodi:docname="path (2).svg"
   inkscape:version="1.4.2 (f4327f4, 2025-05-13)"
   xmlns:inkscape="http://www.inkscape.org/namespaces/inkscape"
   xmlns:sodipodi="http://sodipodi.sourceforge.net/DTD/sodipodi-0.dtd"
   xmlns="http://www.w3.org/2000/svg"
   xmlns:svg="http://www.w3.org/2000/svg"><defs
   id="defs10" /><sodipodi:namedview
   id="namedview10"
   pagecolor="#ffffff"
   bordercolor="#000000"
   borderopacity="0.25"
   inkscape:showpageshadow="2"
   inkscape:pageopacity="0.0"
   inkscape:pagecheckerboard="0"
   inkscape:deskcolor="#d1d1d1"
   inkscape:zoom="8.2872915"
   inkscape:cx="14.902336"
   inkscape:cy="18.703336"
   inkscape:window-width="1440"
   inkscape:window-height="830"
   inkscape:window-x="-6"
   inkscape:window-y="-6"
   inkscape:window-maximized="1"
   inkscape:current-layer="_x32_" />
<style
   type="text/css"
   id="style1">
	.st0{fill:#000000;}
</style>
<g
   id="g10"
   transform="matrix(0.03961985,0,0,0.04000019,0.09731221,9.3169858e-7)"
   style="fill:#ffffff;fill-opacity:1;stroke:none;stroke-width:10.3464;stroke-dasharray:none;stroke-opacity:1">
	<path
   class="st0"
   d="m 218.693,415.537 c -1.188,-0.834 -2.855,-1.95 -3.183,-2.212 -6.025,-4.897 -9.143,-7.279 -14.709,-15.589 -14.381,-21.482 -12.497,-55.048 -1.497,-81.472 0.276,-0.664 0.23,-0.538 0.085,-0.178 12.628,-25.893 12.392,-49.167 0.814,-63.147 -18.784,-22.69 -61.02,-18.726 -94.336,8.854 -30.921,25.598 -43.28,62.543 -29.884,85.869 0.821,1.76 2.002,3.486 3.577,5.166 0.873,1.05 1.799,2.041 2.764,2.979 18.673,20.36 30.191,38.961 39.617,56.466 17.32,32.2 23.215,49.515 27.448,63.77 0.124,0.44 0.262,0.84 0.394,1.221 8.539,25.946 36.243,40.496 62.537,32.574 26.706,-8.053 41.828,-36.23 33.788,-62.93 -4.371,-14.483 -14.715,-24.145 -27.415,-31.371 z"
   id="path1"
   style="fill:#ffffff;fill-opacity:1;stroke:none;stroke-width:10.3464;stroke-dasharray:none;stroke-opacity:1" />
	<path
   class="st0"
   d="m 198.595,225.4 c 15.804,-4.765 24.758,-21.436 19.999,-37.248 -4.772,-15.798 -21.436,-24.75 -37.248,-19.999 -15.805,4.765 -24.757,21.437 -19.993,37.248 4.766,15.798 21.437,24.751 37.242,19.999 z"
   id="path2"
   style="fill:#ffffff;fill-opacity:1;stroke:none;stroke-width:10.3464;stroke-dasharray:none;stroke-opacity:1" />
	<path
   class="st0"
   d="m 131.267,229.482 c 11.906,-3.59 18.646,-16.146 15.063,-28.052 -3.584,-11.899 -16.146,-18.64 -28.052,-15.056 -11.9,3.584 -18.647,16.14 -15.057,28.052 3.59,11.899 16.147,18.64 28.046,15.056 z"
   id="path3"
   style="fill:#ffffff;fill-opacity:1;stroke:none;stroke-width:10.3464;stroke-dasharray:none;stroke-opacity:1" />
	<path
   class="st0"
   d="m 84.733,255.356 c 11.21,-3.374 17.557,-15.195 14.176,-26.399 -3.38,-11.204 -15.201,-17.55 -26.398,-14.17 -11.211,3.367 -17.557,15.188 -14.177,26.392 3.38,11.197 15.201,17.55 26.399,14.177 z"
   id="path4"
   style="fill:#ffffff;fill-opacity:1;stroke:none;stroke-width:10.3464;stroke-dasharray:none;stroke-opacity:1" />
	<path
   class="st0"
   d="m 43.316,259.53 c -10.002,3.019 -15.673,13.566 -12.654,23.576 3.013,10.002 13.567,15.666 23.57,12.654 10.003,-3.019 15.674,-13.574 12.654,-23.563 C 63.88,262.182 53.319,256.524 43.316,259.53 Z"
   id="path5"
   style="fill:#ffffff;fill-opacity:1;stroke:none;stroke-width:10.3464;stroke-dasharray:none;stroke-opacity:1" />
	<path
   class="st0"
   d="m 405.646,92.116 c -34.202,-26.471 -76.549,-29.044 -94.58,-5.743 -11.105,14.341 -10.58,37.616 2.894,63.088 -0.157,-0.354 -0.21,-0.486 0.086,0.164 11.873,26.057 14.846,59.537 1.182,81.479 -5.284,8.493 -8.33,10.967 -14.184,16.06 -0.321,0.282 -1.949,1.444 -3.111,2.317 -12.451,7.646 -22.48,17.636 -26.365,32.253 -7.167,26.963 8.88,54.621 35.836,61.788 26.536,7.049 53.748,-8.401 61.421,-34.609 0.131,-0.38 0.242,-0.788 0.361,-1.227 3.767,-14.394 9.09,-31.892 25.335,-64.644 8.848,-17.8 19.756,-36.768 37.74,-57.732 0.938,-0.971 1.825,-1.995 2.665,-3.078 1.522,-1.713 2.645,-3.486 3.406,-5.277 12.629,-23.754 -0.939,-60.266 -32.686,-84.839 z"
   id="path6"
   style="fill:#ffffff;fill-opacity:1;stroke:none;stroke-width:10.3464;stroke-dasharray:none;stroke-opacity:1" />
	<path
   class="st0"
   d="m 311.775,58.786 c 15.95,4.24 32.325,-5.257 36.565,-21.213 4.24,-15.949 -5.257,-32.325 -21.213,-36.565 -15.949,-4.234 -32.325,5.257 -36.559,21.213 -4.245,15.949 5.245,32.319 21.207,36.565 z"
   id="path7"
   style="fill:#ffffff;fill-opacity:1;stroke:none;stroke-width:10.3464;stroke-dasharray:none;stroke-opacity:1" />
	<path
   class="st0"
   d="m 379.196,60.657 c 12.017,3.19 24.343,-3.964 27.54,-15.975 3.19,-12.012 -3.958,-24.344 -15.969,-27.541 -12.017,-3.196 -24.35,3.958 -27.547,15.976 -3.19,12.017 3.964,24.35 15.976,27.54 z"
   id="path8"
   style="fill:#ffffff;fill-opacity:1;stroke:none;stroke-width:10.3464;stroke-dasharray:none;stroke-opacity:1" />
	<path
   class="st0"
   d="m 426.564,84.987 c 11.303,3.006 22.9,-3.721 25.913,-15.037 3,-11.302 -3.721,-22.906 -15.037,-25.912 -11.303,-3.006 -22.906,3.721 -25.92,15.03 -3.005,11.309 3.729,22.914 15.044,25.919 z"
   id="path9"
   style="fill:#ffffff;fill-opacity:1;stroke:none;stroke-width:10.3464;stroke-dasharray:none;stroke-opacity:1" />
	<path
   class="st0"
   d="m 468.091,87.803 c -10.101,-2.684 -20.458,3.321 -23.149,13.429 -2.678,10.095 3.334,20.452 13.429,23.136 10.095,2.684 20.452,-3.328 23.136,-13.423 2.691,-10.093 -3.321,-20.457 -13.416,-23.142 z"
   id="path10"
   style="fill:#ffffff;fill-opacity:1;stroke:none;stroke-width:10.3464;stroke-dasharray:none;stroke-opacity:1" />
</g>
</svg>
