<?xml version="1.0" encoding="UTF-8" standalone="no"?>
<!-- Uploaded to: SVG Repo, www.svgrepo.com, Generator: SVG Repo Mixer Tools -->

<svg
   fill="#000000"
   width="32"
   height="32"
   viewBox="0 0 10.24 10.24"
   id="Flat"
   version="1.1"
   sodipodi:docname="path-bold-svgrepo-com.svg"
   inkscape:version="1.4.2 (f4327f4, 2025-05-13)"
   xmlns:inkscape="http://www.inkscape.org/namespaces/inkscape"
   xmlns:sodipodi="http://sodipodi.sourceforge.net/DTD/sodipodi-0.dtd"
   xmlns="http://www.w3.org/2000/svg"
   xmlns:svg="http://www.w3.org/2000/svg">
  <defs
     id="defs1" />
  <sodipodi:namedview
     id="namedview1"
     pagecolor="#ffffff"
     bordercolor="#000000"
     borderopacity="0.25"
     inkscape:showpageshadow="2"
     inkscape:pageopacity="0.0"
     inkscape:pagecheckerboard="0"
     inkscape:deskcolor="#d1d1d1"
     inkscape:zoom="2.0718229"
     inkscape:cx="136.35336"
     inkscape:cy="95.085349"
     inkscape:window-width="1440"
     inkscape:window-height="830"
     inkscape:window-x="-6"
     inkscape:window-y="-6"
     inkscape:window-maximized="1"
     inkscape:current-layer="Flat" />
  <path
     d="m 8.5333323,6.240129 a 1.7093514,1.6826814 0 0 0 -1.608807,1.120026 h -4.45934 a 1.3274078,1.306697 0 0 1 0,-2.613394 h 4.551111 a 2.0859261,2.0533806 0 0 0 0,-4.106761 h -4.551111 a 0.56888904,0.560013 0 0 0 0,1.120026 h 4.551111 a 0.94814854,0.93335515 0 0 1 0,1.86671 h -4.551111 a 2.4651853,2.4267225 0 0 0 0,4.853445 h 4.45934 a 1.706562,1.6799355 0 1 0 1.608807,-2.240052 z m 0,2.240052 a 0.5688889,0.56001286 0 1 1 0.56889,-0.560014 0.56951089,0.56062515 0 0 1 -0.56889,0.560014 z"
     id="path1"
     style="stroke-width:0.0470362;fill:#ffffff;fill-opacity:1" />
</svg>
