<?xml version="1.0" encoding="UTF-8" standalone="no"?>
<!-- Uploaded to: SVG Repo, www.svgrepo.com, Generator: SVG Repo Mixer Tools -->

<svg
   fill="#000000"
   height="32"
   width="32"
   version="1.1"
   id="Layer_1"
   viewBox="0 0 20.48016 20.48016"
   xml:space="preserve"
   sodipodi:docname="cycle-svgrepo-com.svg"
   inkscape:version="1.4.2 (f4327f4, 2025-05-13)"
   xmlns:inkscape="http://www.inkscape.org/namespaces/inkscape"
   xmlns:sodipodi="http://sodipodi.sourceforge.net/DTD/sodipodi-0.dtd"
   xmlns="http://www.w3.org/2000/svg"
   xmlns:svg="http://www.w3.org/2000/svg"><defs
   id="defs8" /><sodipodi:namedview
   id="namedview8"
   pagecolor="#ffffff"
   bordercolor="#000000"
   borderopacity="0.25"
   inkscape:showpageshadow="2"
   inkscape:pageopacity="0.0"
   inkscape:pagecheckerboard="0"
   inkscape:deskcolor="#d1d1d1"
   inkscape:zoom="8.2872915"
   inkscape:cx="14.419669"
   inkscape:cy="20.272003"
   inkscape:window-width="1440"
   inkscape:window-height="830"
   inkscape:window-x="-6"
   inkscape:window-y="-6"
   inkscape:window-maximized="1"
   inkscape:current-layer="g8" />
<g
   id="g8"
   transform="matrix(0.03999992,0,0,0.03999992,0,-9.4879132e-5)">
	<g
   id="g7"
   style="fill:#ffffff;fill-opacity:1">
		<g
   id="g6"
   style="fill:#ffffff;fill-opacity:1">
			<path
   d="m 209.74,267.847 c 0.203,-0.304 0.379,-0.619 0.565,-0.931 0.171,-0.286 0.35,-0.565 0.507,-0.859 0.17,-0.318 0.314,-0.645 0.467,-0.97 0.145,-0.306 0.298,-0.608 0.428,-0.922 0.13,-0.315 0.236,-0.637 0.35,-0.957 0.121,-0.337 0.25,-0.669 0.354,-1.013 0.097,-0.32 0.168,-0.645 0.249,-0.969 0.089,-0.351 0.187,-0.698 0.258,-1.056 0.074,-0.375 0.118,-0.753 0.172,-1.13 0.044,-0.311 0.104,-0.618 0.135,-0.933 0.138,-1.4 0.138,-2.811 0,-4.211 -0.031,-0.315 -0.09,-0.622 -0.135,-0.933 -0.054,-0.377 -0.098,-0.755 -0.172,-1.13 -0.071,-0.358 -0.169,-0.705 -0.258,-1.056 -0.081,-0.323 -0.152,-0.649 -0.249,-0.969 -0.104,-0.344 -0.233,-0.677 -0.354,-1.013 -0.115,-0.32 -0.22,-0.642 -0.35,-0.957 -0.13,-0.314 -0.283,-0.616 -0.428,-0.922 -0.153,-0.325 -0.297,-0.652 -0.467,-0.97 -0.157,-0.294 -0.337,-0.573 -0.507,-0.859 -0.186,-0.312 -0.362,-0.627 -0.565,-0.931 -0.211,-0.316 -0.447,-0.613 -0.674,-0.917 -0.19,-0.253 -0.365,-0.513 -0.568,-0.759 -0.446,-0.544 -0.916,-1.067 -1.413,-1.563 l -64,-64 c -8.331,-8.331 -21.839,-8.331 -30.17,0 -8.331,8.331 -8.331,21.839 0,30.17 l 27.582,27.582 h -33.83 c -35.343,0 -64,-28.657 -64,-64 0,-35.343 28.657,-64 64,-64 H 384 c 11.782,0 21.333,-9.551 21.333,-21.333 0,-11.782 -9.551,-21.333 -21.333,-21.333 H 106.667 C 47.759,64.002 0,111.761 0,170.669 0,229.577 47.759,277.336 106.667,277.336 h 33.83 l -27.582,27.582 c -8.331,8.331 -8.331,21.839 0,30.17 8.331,8.331 21.839,8.331 30.17,0 l 64,-64 c 0.497,-0.497 0.967,-1.02 1.413,-1.563 0.202,-0.246 0.378,-0.506 0.568,-0.759 0.227,-0.305 0.463,-0.603 0.674,-0.919 z"
   id="path1"
   style="fill:#ffffff;fill-opacity:1" />
			<path
   d="m 182.852,405.335 h -42.667 c -11.797,0 -21.333,9.536 -21.333,21.333 0,11.797 9.536,21.333 21.333,21.333 h 42.667 c 11.797,0 21.333,-9.536 21.333,-21.333 0,-11.797 -9.535,-21.333 -21.333,-21.333 z"
   id="path2"
   style="fill:#ffffff;fill-opacity:1" />
			<path
   d="m 310.852,405.335 h -42.667 c -11.797,0 -21.333,9.536 -21.333,21.333 0,11.797 9.536,21.333 21.333,21.333 h 42.667 c 11.797,0 21.333,-9.536 21.333,-21.333 0,-11.797 -9.535,-21.333 -21.333,-21.333 z"
   id="path3"
   style="fill:#ffffff;fill-opacity:1" />
			<path
   d="m 429.828,400.471 c -7.765,3.243 -16.021,4.864 -24.491,4.864 h -9.152 c -11.797,0 -21.333,9.536 -21.333,21.333 0,11.797 9.536,21.333 21.333,21.333 h 9.152 c 14.101,0 27.84,-2.731 40.832,-8.107 10.88,-4.501 16.043,-16.981 11.541,-27.883 -4.5,-10.878 -17.066,-16.02 -27.882,-11.54 z"
   id="path4"
   style="fill:#ffffff;fill-opacity:1" />
			<path
   d="m 506.586,307.693 c -3.733,-11.2 -15.808,-17.216 -26.965,-13.547 -11.179,3.712 -17.237,15.787 -13.547,26.965 2.176,6.485 3.264,13.312 3.264,20.224 0,3.904 -0.363,7.701 -1.003,11.435 -2.069,11.605 5.675,22.699 17.259,24.725 1.28,0.235 2.539,0.341 3.755,0.341 10.155,0 19.157,-7.275 20.992,-17.6 1.088,-6.229 1.664,-12.587 1.664,-18.901 -10e-4,-11.498 -1.835,-22.805 -5.419,-33.642 z"
   id="path5"
   style="fill:#ffffff;fill-opacity:1" />
			<path
   d="m 320,341.335 c 39.765,0 73.173,-27.193 82.645,-64 h 2.692 c 5.355,0 10.688,0.661 15.872,1.984 1.749,0.427 3.52,0.64 5.248,0.64 9.515,0 18.219,-6.443 20.672,-16.107 2.88,-11.413 -4.053,-23.019 -15.467,-25.92 -8.576,-2.155 -17.451,-3.264 -26.325,-3.264 h -2.692 c -9.472,-36.807 -42.88,-64 -82.645,-64 -47.131,0 -85.333,38.202 -85.333,85.333 0,47.131 38.202,85.334 85.333,85.334 z m 0,-128 c 23.567,0 42.667,19.099 42.667,42.667 0,23.568 -19.1,42.667 -42.667,42.667 -23.567,0 -42.667,-19.099 -42.667,-42.667 0,-23.568 19.1,-42.667 42.667,-42.667 z"
   id="path6"
   style="fill:#ffffff;fill-opacity:1" />
		</g>
	</g>
</g>
</svg>
