<?xml version="1.0" encoding="UTF-8" standalone="no"?>
<!-- Uploaded to: SVG Repo, www.svgrepo.com, Generator: SVG Repo Mixer Tools -->

<svg
   width="32"
   height="32"
   viewBox="0 0 0.96 0.96"
   fill="none"
   version="1.1"
   id="svg1"
   sodipodi:docname="settings-svgrepo-com.svg"
   inkscape:version="1.4.2 (f4327f4, 2025-05-13)"
   xmlns:inkscape="http://www.inkscape.org/namespaces/inkscape"
   xmlns:sodipodi="http://sodipodi.sourceforge.net/DTD/sodipodi-0.dtd"
   xmlns="http://www.w3.org/2000/svg"
   xmlns:svg="http://www.w3.org/2000/svg">
  <defs
     id="defs1" />
  <sodipodi:namedview
     id="namedview1"
     pagecolor="#ffffff"
     bordercolor="#000000"
     borderopacity="0.25"
     inkscape:showpageshadow="2"
     inkscape:pageopacity="0.0"
     inkscape:pagecheckerboard="0"
     inkscape:deskcolor="#d1d1d1"
     inkscape:zoom="8.2872915"
     inkscape:cx="28.175671"
     inkscape:cy="20.151337"
     inkscape:window-width="1440"
     inkscape:window-height="830"
     inkscape:window-x="-6"
     inkscape:window-y="-6"
     inkscape:window-maximized="1"
     inkscape:current-layer="svg1" />
  <path
     fill-rule="evenodd"
     clip-rule="evenodd"
     d="M 0.5642565,0.0073075 C 0.546716,0 0.5244766,0 0.4799978,0 c -0.044479,0 -0.066718,0 -0.084258,0.00731 -0.02339,0.00974 -0.041973,0.028432 -0.051662,0.051955 -0.00442,0.010738 -0.00616,0.023226 -0.00683,0.041441 -9.967e-4,0.026769 -0.014646,0.051547 -0.037714,0.064941 -0.023068,0.013394 -0.05123,0.012893 -0.07478,3.759e-4 -0.016025,-0.00852 -0.027644,-0.013255 -0.039102,-0.014772 -0.0251,-0.00332 -0.050486,0.00352 -0.070571,0.019017 -0.015064,0.011625 -0.026184,0.030994 -0.048423,0.069731 -0.022239,0.038738 -0.033358,0.058106 -0.035836,0.077039 -0.00331,0.025243 0.00349,0.050772 0.01891,0.070972 0.00704,0.00922 0.01692,0.016968 0.032265,0.026664 0.022557,0.014256 0.037072,0.038539 0.03707,0.065328 -1.3e-6,0.026789 -0.014515,0.051067 -0.03707,0.065318 -0.015346,0.0097 -0.025235,0.017453 -0.03227,0.026674 -0.015412,0.020198 -0.022214,0.045725 -0.01891,0.070968 0.00248,0.018931 0.013598,0.038304 0.035836,0.07704 0.022239,0.038736 0.033358,0.058109 0.048422,0.06973 0.020085,0.015499 0.045471,0.022339 0.070571,0.019018 0.011458,-0.00152 0.023076,-0.00625 0.039099,-0.01477 0.023551,-0.012518 0.051715,-0.013018 0.074785,3.744e-4 0.023069,0.013397 0.03672,0.038174 0.037716,0.064949 6.773e-4,0.018211 0.00241,0.030701 0.00683,0.041438 0.00969,0.02352 0.028271,0.042211 0.051662,0.051955 0.017542,0.0073 0.039782,0.0073 0.08426,0.0073 0.044479,0 0.066718,0 0.084258,-0.00731 0.02339,-0.00974 0.041973,-0.028435 0.05166,-0.051955 0.00442,-0.010738 0.00616,-0.023227 0.00684,-0.041443 9.967e-4,-0.02677 0.014642,-0.051547 0.03771,-0.064944 0.023068,-0.013397 0.051234,-0.012893 0.074785,-3.744e-4 0.016024,0.00852 0.027639,0.013248 0.039098,0.014765 0.0251,0.00333 0.050485,-0.00351 0.070569,-0.019013 0.015068,-0.011626 0.026185,-0.030994 0.048424,-0.069734 0.022239,-0.038736 0.033357,-0.058104 0.035839,-0.077035 0.00331,-0.025243 -0.0035,-0.050774 -0.01891,-0.070973 -0.00704,-0.00922 -0.016924,-0.016973 -0.032272,-0.026669 -0.022552,-0.014251 -0.037066,-0.038534 -0.037066,-0.065323 0,-0.026789 0.014513,-0.051062 0.037066,-0.065314 0.015352,-0.0097 0.025237,-0.017448 0.032277,-0.026674 0.015408,-0.020197 0.022211,-0.045726 0.01891,-0.070969 -0.00249,-0.018932 -0.0136,-0.038301 -0.035839,-0.077039 -0.022239,-0.038737 -0.033357,-0.058106 -0.048424,-0.069731 -0.020084,-0.0155 -0.045469,-0.02234 -0.070569,-0.019017 -0.011458,0.00152 -0.023078,0.00625 -0.039098,0.01477 -0.023552,0.012518 -0.051716,0.013019 -0.074785,-3.763e-4 -0.023068,-0.013394 -0.03672,-0.038174 -0.037719,-0.064945 -6.774e-4,-0.018214 -0.00241,-0.030701 -0.00683,-0.041439 -0.00969,-0.023522 -0.028269,-0.042211 -0.05166,-0.051955 z M 0.4799978,0.624 c 0.079081,0 0.1431849,-0.064469 0.1431849,-0.144 0,-0.079531 -0.064103,-0.144 -0.1431849,-0.144 -0.079081,0 -0.1431868,0.064469 -0.1431868,0.144 0,0.079531 0.064105,0.144 0.1431868,0.144 z"
     fill="#1c274c"
     id="path1"
     style="stroke-width:0.0476831;fill:#ffffff;fill-opacity:1" />
</svg>
