<?xml version="1.0" encoding="UTF-8" standalone="no"?>
<!-- Uploaded to: SVG Repo, www.svgrepo.com, Transformed by: SVG Repo Mixer Tools -->

<svg
   fill="#000000"
   width="32.00005"
   height="32.000462"
   viewBox="0 0 0.56000085 0.56000808"
   role="img"
   focusable="false"
   aria-hidden="true"
   version="1.1"
   id="svg1"
   sodipodi:docname="top.svg"
   inkscape:version="1.4.2 (f4327f4, 2025-05-13)"
   xmlns:inkscape="http://www.inkscape.org/namespaces/inkscape"
   xmlns:sodipodi="http://sodipodi.sourceforge.net/DTD/sodipodi-0.dtd"
   xmlns="http://www.w3.org/2000/svg"
   xmlns:svg="http://www.w3.org/2000/svg">
  <defs
     id="defs1" />
  <sodipodi:namedview
     id="namedview1"
     pagecolor="#ffffff"
     bordercolor="#000000"
     borderopacity="0.25"
     inkscape:showpageshadow="2"
     inkscape:pageopacity="0.0"
     inkscape:pagecheckerboard="0"
     inkscape:deskcolor="#d1d1d1"
     inkscape:zoom="1.465"
     inkscape:cx="-15.358362"
     inkscape:cy="85.324235"
     inkscape:window-width="1440"
     inkscape:window-height="830"
     inkscape:window-x="-6"
     inkscape:window-y="-6"
     inkscape:window-maximized="1"
     inkscape:current-layer="SVGRepo_iconCarrier" />
  <g
     id="SVGRepo_bgCarrier"
     stroke-width="0"
     transform="translate(-1.1030598,-0.9985635)" />
  <g
     id="SVGRepo_tracerCarrier"
     stroke-linecap="round"
     stroke-linejoin="round"
     transform="translate(-1.1030598,-0.9985635)" />
  <g
     id="SVGRepo_iconCarrier"
     transform="translate(-1.1030598,-0.9985635)">
    <path
       d="m 1.3778338,1.1194277 h -0.264594 c -0.00298,0 -0.00541,9.262e-4 -0.00732,0.0028 -0.00191,0.00188 -0.00286,0.00428 -0.00286,0.00718 v 0.060005 c 0,0.00292 9.557e-4,0.0053 0.00286,0.00718 0.00191,0.00186 0.00437,0.00282 0.00732,0.00282 h 0.264594 c 0.00298,0 0.00539,-9.387e-4 0.00732,-0.00282 0.00191,-0.00188 0.00288,-0.00428 0.00288,-0.00718 v -0.059991 c 0,-0.00294 -9.557e-4,-0.0053 -0.00288,-0.00718 -0.00191,-0.00188 -0.00437,-0.0028 -0.00732,-0.0028 z m 0,0.114036 H 1.1743051 c -0.00298,0 -0.00539,9.389e-4 -0.0073,0.00282 -0.0019,0.00188 -0.00288,0.00428 -0.00288,0.00718 v 0.060003 c 0,0.00292 9.561e-4,0.0053 0.00288,0.00718 0.00191,0.00188 0.00434,0.00282 0.0073,0.00282 h 0.2035285 c 0.00298,0 0.00539,-9.258e-4 0.00732,-0.00282 0.00191,-0.00188 0.00288,-0.00426 0.00288,-0.00718 v -0.060003 c 0,-0.00292 -9.557e-4,-0.0053 -0.00288,-0.00718 -0.00191,-0.00187 -0.00437,-0.00282 -0.00732,-0.00282 z m 0,0.114034 H 1.235362 c -0.00298,0 -0.00541,9.391e-4 -0.00732,0.00282 -0.00191,0.00188 -0.00286,0.00426 -0.00286,0.00718 v 0.060003 c 0,0.00294 9.554e-4,0.00532 0.00286,0.00718 0.00191,0.00188 0.00437,0.00284 0.00732,0.00284 h 0.1424716 c 0.00298,0 0.00539,-9.391e-4 0.00732,-0.00284 0.00191,-0.00186 0.00288,-0.00428 0.00288,-0.00718 v -0.060003 c 0,-0.00294 -9.557e-4,-0.0053 -0.00288,-0.00718 -0.00191,-0.00187 -0.00437,-0.00282 -0.00732,-0.00282 z m 0,0.1140381 h -0.081413 c -0.00298,0 -0.00539,9.389e-4 -0.0073,0.00284 -0.00191,0.00186 -0.00288,0.00426 -0.00288,0.00716 v 0.060013 c 0,0.0029 9.552e-4,0.0053 0.00288,0.00716 0.0019,0.00188 0.00435,0.00284 0.0073,0.00284 h 0.081412 c 0.00298,0 0.00539,-9.387e-4 0.00732,-0.00284 0.00191,-0.00186 0.00288,-0.00428 0.00288,-0.00716 v -0.060011 c 0,-0.00292 -9.557e-4,-0.0053 -0.00288,-0.00716 -0.00191,-0.00188 -0.00437,-0.00284 -0.00734,-0.00284 z M 1.5581529,1.0013745 c -0.00235,-0.001878 -0.00477,-0.002811 -0.0073,-0.002811 -0.00277,0 -0.00518,9.2594e-4 -0.0073,0.002811 l -0.1014718,0.099685 c -0.00212,0.00251 -0.00318,0.00502 -0.00318,0.00751 0,0.00292 9.553e-4,0.0053 0.00288,0.00718 0.00191,0.00186 0.00437,0.00282 0.0073,0.00282 h 0.020968 v 0.4300021 c 0,0.00292 9.554e-4,0.0053 0.00286,0.00716 0.00191,0.00188 0.00437,0.00284 0.0073,0.00284 h 0.1345732 c 0.00298,0 0.00541,-9.386e-4 0.00732,-0.00284 0.00191,-0.00186 0.00288,-0.00428 0.00288,-0.00716 V 1.1185675 h 0.027642 c 0.00467,0 0.00783,-0.0021 0.00955,-0.00626 0.0017,-0.00396 9.554e-4,-0.00761 -0.00224,-0.010956 L 1.558161,1.001368 Z"
       id="path1"
       style="fill:#ffffff;fill-opacity:1;stroke:none;stroke-width:0.0112435;stroke-dasharray:none;stroke-opacity:1" />
  </g>
</svg>
