<?xml version="1.0" encoding="UTF-8" standalone="no"?>
<svg
   version="1.1"
   width="32"
   height="32"
   x="0"
   y="0"
   viewBox="0 0 32.000687 32.000687"
   xml:space="preserve"
   class=""
   id="svg1"
   sodipodi:docname="undo.svg"
   inkscape:version="1.4.2 (f4327f4, 2025-05-13)"
   xmlns:inkscape="http://www.inkscape.org/namespaces/inkscape"
   xmlns:sodipodi="http://sodipodi.sourceforge.net/DTD/sodipodi-0.dtd"
   xmlns="http://www.w3.org/2000/svg"
   xmlns:svg="http://www.w3.org/2000/svg"><defs
     id="defs1" /><sodipodi:namedview
     id="namedview1"
     pagecolor="#ffffff"
     bordercolor="#000000"
     borderopacity="0.25"
     inkscape:showpageshadow="2"
     inkscape:pageopacity="0.0"
     inkscape:pagecheckerboard="0"
     inkscape:deskcolor="#d1d1d1"
     inkscape:zoom="1.6186116"
     inkscape:cx="104.71938"
     inkscape:cy="56.221022"
     inkscape:window-width="1440"
     inkscape:window-height="830"
     inkscape:window-x="-6"
     inkscape:window-y="-6"
     inkscape:window-maximized="1"
     inkscape:current-layer="svg1" /><g
     id="g1"
     transform="matrix(0.06250005,0,0,0.06249874,0,3.1377624e-4)"
     style="fill:#ffffff;fill-opacity:1;stroke:none"><path
       d="M 328,128.015 H 192 v -80 a 16.05,16.05 0 0 0 -9.056,-14.432 c -5.568,-2.656 -12.128,-1.952 -16.928,1.92 l -160,128 C 2.208,166.575 0,171.151 0,176.015 c 0,4.864 2.208,9.44 5.984,12.512 l 160,128 A 16.158,16.158 0 0 0 176,320.015 c 2.368,0 4.736,-0.512 6.944,-1.568 A 16.05,16.05 0 0 0 192,304.015 v -80 h 139.392 c 41.856,0 80,30.08 84.192,71.712 4.832,47.872 -32.704,88.288 -79.584,88.288 H 208 c -8.832,0 -16,7.168 -16,16 v 64 c 0,8.832 7.168,16 16,16 h 128 c 102.816,0 185.472,-88.864 175.136,-193.76 C 502.08,194.863 419.84,128.015 328,128.015 Z"
       fill="#ffc107"
       data-original="#ffc107"
       class=""
       id="path1"
       style="fill:#ffffff;fill-opacity:1;stroke:none" /></g></svg>
