<?xml version="1.0" encoding="UTF-8" standalone="no"?>
<!-- Uploaded to: SVG Repo, www.svgrepo.com, Generator: SVG Repo Mixer Tools -->

<svg
   fill="#000000"
   width="32"
   height="32"
   viewBox="0 0 2 2"
   version="1.1"
   id="svg1"
   sodipodi:docname="broom-svgrepo-com.svg"
   inkscape:version="1.4.2 (f4327f4, 2025-05-13)"
   xmlns:inkscape="http://www.inkscape.org/namespaces/inkscape"
   xmlns:sodipodi="http://sodipodi.sourceforge.net/DTD/sodipodi-0.dtd"
   xmlns="http://www.w3.org/2000/svg"
   xmlns:svg="http://www.w3.org/2000/svg">
  <defs
     id="defs1" />
  <sodipodi:namedview
     id="namedview1"
     pagecolor="#ffffff"
     bordercolor="#000000"
     borderopacity="0.25"
     inkscape:showpageshadow="2"
     inkscape:pageopacity="0.0"
     inkscape:pagecheckerboard="0"
     inkscape:deskcolor="#d1d1d1"
     inkscape:zoom="4.1436457"
     inkscape:cx="22.56467"
     inkscape:cy="24.133337"
     inkscape:window-width="1440"
     inkscape:window-height="830"
     inkscape:window-x="-6"
     inkscape:window-y="-6"
     inkscape:window-maximized="1"
     inkscape:current-layer="svg1" />
  <path
     d="M 1.7921569,3.66271e-6 C 1.7559649,3.1635271e-4 1.7219759,0.01470034 1.7027789,0.04378094 l -0.3059,0.57160621 c 0.022659,0.007817 0.073643,0.0303314 0.2429576,0.10631625 l 0.00252,0.001251 c 0.029269,0.0131332 0.051613,0.022514 0.060424,0.0262664 0.00299,0.001407 0.00582,0.003596 0.00882,0.005003 L 1.9344066,0.14134173 C 1.9484114,0.09287405 1.9134783,0.03705799 1.8576169,0.01501301 1.8368459,0.0046941 1.813872,-1.5268729e-4 1.7921569,3.66271e-6 Z M 0.2236325,0.19387447 c -0.0889061,0 -0.1611325,0.0717635 -0.1611325,0.16009977 0,0.0883363 0.072226,0.16009977 0.1611325,0.16009977 0.088906,0 0.1611325,-0.0717635 0.1611325,-0.16009977 0,-0.0883363 -0.072226,-0.16009977 -0.1611325,-0.16009977 z M 0.5861807,0.3139493 c -0.044531,0 -0.080566,0.0358035 -0.080566,0.0800499 0,0.0442463 0.036035,0.0800499 0.080566,0.0800499 0.044531,0 0.080566,-0.0358036 0.080566,-0.0800499 0,-0.0442463 -0.036035,-0.0800499 -0.080566,-0.0800499 z m 0.6306828,0.35021824 c -0.077891,0.005785 -0.1457117,0.0442463 -0.1938627,0.11131937 0.03037,0.0508129 0.083556,0.11288287 0.1586148,0.11131938 0.019827,-7.8169e-4 0.036507,0.0134459 0.040283,0.0325203 0.015264,0.0236085 0.1090476,0.0655095 0.1359556,0.0550342 0.01133,-0.00438 0.023446,-0.00344 0.033989,0.0025 0.010543,0.00594 0.018096,0.015635 0.020141,0.027517 0.00157,0.00657 0.019197,0.02955 0.055389,0.046279 0.028482,0.013133 0.056176,0.016417 0.071754,0.00876 0.010071,-0.005 0.021086,-0.00516 0.031471,-0.00125 0.010543,0.00391 0.019669,0.012195 0.023918,0.022514 0.027222,0.065979 0.1515339,0.070825 0.2366634,0.06379 C 1.8436103,1.0908438 1.8403081,1.0350276 1.821109,0.9831202 1.7945156,0.91166939 1.7418017,0.855228 1.6700473,0.82302041 1.662499,0.81973741 1.6381036,0.80816741 1.6071049,0.79425251 1.4635962,0.72983741 1.3825579,0.69481551 1.366665,0.69043781 1.3141081,0.66979991 1.2635968,0.66073181 1.2168621,0.66417141 Z M 0.5257559,0.59412384 c -0.1221082,0 -0.2215571,0.0988116 -0.2215571,0.22013719 0,0.1213256 0.099449,0.22013717 0.2215571,0.22013717 0.1221083,0 0.2215573,-0.0988115 0.2215573,-0.22013717 0,-0.12132561 -0.099449,-0.22013719 -0.2215573,-0.22013719 z M 0.9802,0.8555368 C 0.967611,0.8852428 0.953292,0.9130727 0.938658,0.939339 c 0.017309,0.0419011 0.06845,0.1389929 0.1623913,0.1175733 0.010858,-0.0025 0.022344,-0.00109 0.031471,0.005 0.00928,0.0061 0.014477,0.015478 0.016365,0.026266 0.00268,0.015009 0.020456,0.032833 0.045318,0.046279 0.035248,0.018918 0.073328,0.023139 0.089378,0.01626 0.010543,-0.00453 0.022344,-0.00485 0.03273,0 0.010386,0.00485 0.018253,0.014071 0.0214,0.025016 0.00567,0.019074 0.025491,0.038618 0.052872,0.052533 0.032258,0.01626 0.06908,0.022201 0.093155,0.013759 0.018568,-0.00641 0.038395,0.00141 0.047837,0.018762 0.035563,0.06551 0.1523206,0.072545 0.2429576,0.066291 0.011487,-0.03252 0.022187,-0.065979 0.03273,-0.1013132 -0.010858,6.256e-4 -0.022187,0.00125 -0.033989,0.00125 -0.084342,0 -0.1852079,-0.016573 -0.2354045,-0.085053 -0.033989,0.00453 -0.073013,-0.00281 -0.1120375,-0.022514 -0.028323,-0.014384 -0.05948,-0.036429 -0.078048,-0.06379 -0.051298,0 -0.1103065,-0.028299 -0.1397321,-0.046279 C 1.1852343,0.9954641 1.1674524,0.9817051 1.1564378,0.9668526 1.0765018,0.95950783 1.0193816,0.90775686 0.9802,0.8555368 Z M 0.8883041,1.0181381 C 0.6385802,1.3628842 0.2121455,1.3527216 0.2072675,1.3520962 c -0.015893,-0.00141 -0.031471,0.00704 -0.039024,0.021263 -0.00755,0.014228 -0.00645,0.03127 0.00377,0.043777 0.071912,0.08818 0.1491735,0.1627576 0.2278515,0.2263911 0.037136,0.00735 0.2708096,0.040181 0.5022803,-0.2263911 0.014477,-0.016729 0.039811,-0.018136 0.056648,-0.00375 0.016837,0.014384 0.018253,0.039556 0.00377,0.056285 -0.1614471,0.1858971 -0.3317064,0.2440583 -0.4506674,0.2564098 0.099448,0.066604 0.1996846,0.1169479 0.2933115,0.1550966 0.05948,-0.012351 0.2590079,-0.071607 0.4355613,-0.3389612 0.012274,-0.018449 0.03808,-0.024703 0.056648,-0.012508 0.018568,0.012195 0.023603,0.037836 0.01133,0.056285 -0.1331232,0.2015318 -0.2788348,0.2961221 -0.3814309,0.340212 0.2094408,0.067386 0.3656953,0.073327 0.3789132,0.073796 h 0.00126 c 0.00755,0 0.014949,-0.00219 0.0214,-0.00625 0.01133,-0.00704 0.2445313,-0.1583799 0.4154197,-0.584114 -0.00661,1.561e-4 -0.013375,0.00125 -0.020141,0.00125 -0.08812,0 -0.1899288,-0.017667 -0.2454754,-0.086304 -0.039024,0.00469 -0.083713,-0.00422 -0.1246259,-0.025016 -0.03336,-0.017042 -0.059795,-0.039869 -0.076789,-0.066291 -0.042801,0.0036 -0.089064,-0.011726 -0.1208495,-0.028768 -0.03273,-0.017667 -0.058379,-0.039869 -0.073013,-0.065041 -0.092683,0.00485 -0.1570412,-0.057848 -0.1951214,-0.1213256 z"
     id="path1"
     sodipodi:nodetypes="ccccccccccsssssssssscccccscccccccccccssssscccccccsccccccsccccccccscccsccccscccsccscccccc"
     style="stroke-width:0.0401538;fill:#ffffff;fill-opacity:1" />
</svg>
