<?xml version="1.0" encoding="UTF-8" standalone="no"?>
<!-- Uploaded to: SVG Repo, www.svgrepo.com, Generator: SVG Repo Mixer Tools -->

<svg
   fill="#000000"
   width="31.999998"
   height="31.999998"
   viewBox="0 0 2.0799999 2.0799999"
   enable-background="new 0 0 52 52"
   xml:space="preserve"
   version="1.1"
   id="svg5"
   sodipodi:docname="magicwand-svgrepo-com.svg"
   inkscape:version="1.4.2 (f4327f4, 2025-05-13)"
   xmlns:inkscape="http://www.inkscape.org/namespaces/inkscape"
   xmlns:sodipodi="http://sodipodi.sourceforge.net/DTD/sodipodi-0.dtd"
   xmlns="http://www.w3.org/2000/svg"
   xmlns:svg="http://www.w3.org/2000/svg"><defs
   id="defs5" /><sodipodi:namedview
   id="namedview5"
   pagecolor="#ffffff"
   bordercolor="#000000"
   borderopacity="0.25"
   inkscape:showpageshadow="2"
   inkscape:pageopacity="0.0"
   inkscape:pagecheckerboard="0"
   inkscape:deskcolor="#d1d1d1"
   inkscape:zoom="1.465"
   inkscape:cx="65.870307"
   inkscape:cy="75.085324"
   inkscape:window-width="1440"
   inkscape:window-height="830"
   inkscape:window-x="-6"
   inkscape:window-y="-6"
   inkscape:window-maximized="1"
   inkscape:current-layer="svg5" />
<g
   id="g5"
   transform="matrix(-0.04333333,0,0,0.04328824,2.1666665,-0.08441207)"
   style="fill:#ffffff;fill-opacity:1">
	<path
   d="m 28.2,21 c -0.4,-0.4 -1,-0.4 -1.4,0 L 2.9,44.9 c -1.2,1.2 -1.2,3 0,4.2 v 0 c 1.2,1.2 3,1.2 4.2,0 L 31,25.2 c 0.4,-0.4 0.4,-1 0,-1.4 z"
   id="path1"
   style="fill:#ffffff;fill-opacity:1" />
	<path
   d="m 35.2,21 3.2,-3.2 c 0.6,-0.6 0.6,-1.5 0,-2.1 L 36.3,13.6 C 35.7,13 34.8,13 34.2,13.6 L 31,16.8 c -0.4,0.4 -0.4,1 0,1.4 l 2.8,2.8 c 0.4,0.4 1,0.4 1.4,0 z"
   id="path2"
   style="fill:#ffffff;fill-opacity:1" />
	<path
   d="m 10.4,11.6 c 3.8,1.2 6.8,4.1 8,8 0.2,0.6 1,0.6 1.2,0 1.2,-3.8 4.1,-6.8 8,-8 0.6,-0.2 0.6,-1 0,-1.2 -3.8,-1.2 -6.8,-4.1 -8,-8 -0.2,-0.6 -1,-0.6 -1.2,0 -1.2,3.8 -4.1,6.8 -8,8 -0.5,0.2 -0.5,1 0,1.2 z"
   id="path3"
   style="fill:#ffffff;fill-opacity:1" />
	<path
   d="m 49.6,30.5 c -3.4,-1.1 -6,-3.7 -7.1,-7.1 -0.2,-0.5 -0.9,-0.5 -1.1,0 -1.1,3.4 -3.7,6 -7.1,7.1 -0.5,0.2 -0.5,0.9 0,1.1 3.4,1.1 6,3.7 7.1,7.1 0.2,0.5 0.9,0.5 1.1,0 1.1,-3.4 3.7,-6 7.1,-7.1 0.5,-0.2 0.5,-1 0,-1.1 z"
   id="path4"
   style="fill:#ffffff;fill-opacity:1" />
	<path
   d="m 38.3,8.4 c 2.6,0.8 4.5,2.7 5.3,5.3 0.1,0.4 0.7,0.4 0.8,0 0.8,-2.6 2.7,-4.5 5.3,-5.3 0.4,-0.1 0.4,-0.7 0,-0.8 -2.6,-0.8 -4.5,-2.7 -5.3,-5.3 -0.1,-0.4 -0.7,-0.4 -0.8,0 -0.8,2.6 -2.7,4.5 -5.3,5.3 -0.4,0.1 -0.4,0.7 0,0.8 z"
   id="path5"
   style="fill:#ffffff;fill-opacity:1" />
</g>
</svg>
