<?xml version="1.0" encoding="UTF-8" standalone="no"?>
<svg
   class="svg-icon"
   style="overflow:hidden;fill:currentColor"
   viewBox="0 0 800 800"
   version="1.1"
   id="svg1"
   sodipodi:docname="empty.svg"
   width="800"
   height="800"
   inkscape:version="1.4.2 (f4327f4, 2025-05-13)"
   xmlns:inkscape="http://www.inkscape.org/namespaces/inkscape"
   xmlns:sodipodi="http://sodipodi.sourceforge.net/DTD/sodipodi-0.dtd"
   xmlns="http://www.w3.org/2000/svg"
   xmlns:svg="http://www.w3.org/2000/svg">
  <defs
     id="defs1">
    <rect
       x="-873.72014"
       y="97.856656"
       width="506.75768"
       height="726.93516"
       id="rect11" />
  </defs>
  <sodipodi:namedview
     id="namedview1"
     pagecolor="#ffffff"
     bordercolor="#000000"
     borderopacity="0.25"
     inkscape:showpageshadow="2"
     inkscape:pageopacity="0.0"
     inkscape:pagecheckerboard="0"
     inkscape:deskcolor="#d1d1d1"
     inkscape:zoom="0.28613281"
     inkscape:cx="-19.221843"
     inkscape:cy="426.37543"
     inkscape:window-width="1440"
     inkscape:window-height="830"
     inkscape:window-x="-6"
     inkscape:window-y="-6"
     inkscape:window-maximized="1"
     inkscape:current-layer="svg1" />
  <path
     id="path5"
     style="overflow:hidden;fill:#ffffff;display:inline;fill-opacity:1;stroke-width:0.790078"
     d="M 326.36328 0 C 323.63602 0 320.91016 2.6679688 320.91016 2.6679688 L 102.72852 216 C 102.72852 218.66666 100 221.33332 100 224 L 100 786.66602 C 100 794.66611 105.45492 800 113.63672 800 L 686.36328 800 C 694.54508 800 700 794.66611 700 786.66602 L 700 13.333984 C 700 5.3339932 694.54508 0 686.36328 0 L 331.81836 0 L 329.0918 0 L 326.36328 0 z M 318.18164 45.333984 L 318.18164 213.33398 L 146.36328 213.33398 L 318.18164 45.333984 z M 467.99609 301.96484 C 482.66625 301.96484 494.64539 306.47807 503.93359 315.50586 C 513.2218 324.53365 517.86523 336.38258 517.86523 351.05273 C 517.86523 363.63956 514.13326 374.79534 506.66797 384.51758 C 505.71311 385.64605 498.59377 392.76344 485.3125 405.87109 C 477.32638 413.5968 472.98741 421.19292 472.29297 428.6582 L 471.77148 434.38672 C 471.42426 435.86241 470.16624 436.99023 467.99609 437.77148 C 465.47873 438.63954 463.52561 439.07422 462.13672 439.07422 C 457.70963 439.07422 455.10547 438.94401 454.32422 438.68359 C 452.24088 437.90234 451.19922 435.81901 451.19922 432.43359 C 451.19922 422.01691 452.97808 413.72766 456.53711 407.56445 C 462.26628 400.09917 467.95138 392.5892 473.59375 385.03711 C 480.36459 376.00932 483.75 367.37349 483.75 359.12695 C 483.75 351.05403 481.40626 344.54363 476.71875 339.5957 C 472.11805 334.64778 465.82596 332.17383 457.83984 332.17383 C 451.41622 332.17383 444.25478 334.42946 436.35547 338.94336 C 428.54296 343.45725 424.80903 345.71484 425.15625 345.71484 C 422.46527 345.71484 421.12109 337.38153 421.12109 320.71484 C 421.12109 319.49956 422.42317 317.98112 425.02734 316.1582 C 438.65583 306.69639 452.97871 301.96484 467.99609 301.96484 z M 463.95898 451.31445 C 468.8201 451.31445 472.8125 453.09331 475.9375 456.65234 C 479.14931 460.12457 480.75586 464.29123 480.75586 469.15234 C 480.75586 474.01346 479.14931 478.26627 475.9375 481.91211 C 472.72569 485.55795 468.7333 487.38086 463.95898 487.38086 C 459.27148 487.38086 455.32118 485.55795 452.10938 481.91211 C 448.98437 478.26627 447.42188 474.01346 447.42188 469.15234 C 447.42188 464.29123 448.98437 460.12457 452.10938 456.65234 C 455.23438 453.09331 459.18467 451.31445 463.95898 451.31445 z M 311.64258 456.3418 C 312.14524 456.34247 312.67943 456.36276 313.24414 456.42188 L 313.25391 456.42383 L 313.54492 456.45703 L 313.84961 456.5 L 314.1543 456.54883 L 314.45508 456.60742 L 314.75195 456.67188 L 315.04883 456.74219 L 315.3418 456.82227 L 315.63086 456.9082 L 315.91797 457 L 316.20117 457.09961 L 316.48242 457.20508 L 316.74805 457.31445 L 316.76367 457.32031 C 316.99903 457.41993 317.24524 457.53156 317.49805 457.66016 L 315.46094 461.66211 C 315.32679 461.59387 315.17805 461.52468 315.01367 461.45508 L 314.8418 461.38672 L 314.66406 461.31836 L 314.48438 461.25586 L 314.30469 461.19727 L 314.12109 461.14258 L 313.93555 461.09375 L 313.74805 461.04883 L 313.55859 461.00781 L 313.36914 460.9707 L 313.17578 460.93945 L 312.98242 460.91211 L 312.77734 460.88867 L 312.77539 460.88867 C 311.48376 460.75397 309.64294 461.16521 307.33594 460.82617 L 307.99023 456.38281 C 308.90969 456.51797 310.1346 456.33979 311.64258 456.3418 z M 283.4668 456.35938 L 283.52344 460.84961 L 283.29297 460.85156 L 283.0918 460.85938 L 282.89258 460.87305 L 282.69531 460.89062 L 282.49805 460.91211 L 282.30469 460.93945 L 282.11133 460.9707 L 281.92188 461.00781 L 281.73242 461.04883 L 281.54492 461.09375 L 281.35938 461.14258 L 281.17578 461.19727 L 280.99609 461.25586 L 280.81641 461.31836 L 280.63867 461.38672 L 280.46289 461.45703 L 280.29102 461.5332 L 280.12109 461.61133 L 279.95117 461.69531 L 279.78516 461.7832 L 279.62305 461.87305 L 279.46094 461.96875 L 279.30273 462.06641 C 279.29763 462.07041 279.29211 462.07317 279.28711 462.07617 L 279.2793 462.08203 C 279.13041 462.17799 278.98382 462.27878 278.8418 462.38477 C 278.69259 462.49612 278.54711 462.61449 278.40625 462.73633 C 278.26554 462.85803 278.12966 462.98373 277.99805 463.11523 C 277.87263 463.24054 277.7513 463.37033 277.63477 463.50391 L 277.62891 463.51172 L 277.61719 463.52344 L 277.49805 463.66602 L 277.41602 463.76562 L 273.91992 460.94922 L 274.03516 460.80859 L 274.21484 460.59375 L 274.22461 460.58398 C 274.41691 460.36204 274.6165 460.14699 274.82422 459.93945 C 275.03195 459.73191 275.24665 459.53195 275.46875 459.33984 C 275.6911 459.14752 275.92059 458.96297 276.15625 458.78711 C 276.39243 458.61085 276.63444 458.442 276.88281 458.2832 L 276.89453 458.27734 L 277.13477 458.12695 L 277.38867 457.97852 L 277.64844 457.83398 L 277.91016 457.69531 L 278.17773 457.5625 L 278.44727 457.4375 L 278.7207 457.31836 L 278.99805 457.20508 L 279.2793 457.09961 L 279.5625 457 L 279.84961 456.9082 L 280.13867 456.82227 L 280.43164 456.74219 L 280.72852 456.67188 L 281.02539 456.60742 L 281.32617 456.54883 L 281.63086 456.5 L 281.93555 456.45703 L 282.24414 456.42188 L 282.55469 456.39453 L 282.86719 456.375 L 283.17969 456.36328 L 283.4668 456.35938 z M 289.70117 456.35938 L 298.68164 456.35938 L 298.68164 460.84961 L 289.70117 460.84961 L 289.70117 456.35938 z M 323.97461 466.05859 L 323.99219 466.13672 L 324.05078 466.43945 L 324.09961 466.74219 L 324.14258 467.04688 L 324.17773 467.35547 L 324.20508 467.66602 L 324.22461 467.97656 L 324.23633 468.29102 L 324.24023 468.5918 L 324.24023 475.5 L 319.75 475.5 L 319.75 468.62109 L 319.74805 468.4043 L 319.74023 468.20312 L 319.72656 468.00391 L 319.70898 467.80664 L 319.6875 467.61133 L 319.66016 467.41602 L 319.62891 467.22461 L 319.5918 467.0332 L 319.58789 467.00977 L 323.97461 466.05859 z M 271.24023 470.83984 L 275.73047 470.83984 L 275.73047 479.82031 L 271.24023 479.82031 L 271.24023 470.83984 z M 319.75 484.48047 L 324.24023 484.48047 L 324.24023 493.46094 L 319.75 493.46094 L 319.75 484.48047 z M 271.24023 488.80078 L 275.73047 488.80078 L 275.73047 497.06641 L 275.73242 497.2832 L 275.74023 497.48438 L 275.75 497.64062 L 271.26953 497.92188 L 271.25586 497.70898 L 271.24414 497.39648 L 271.24023 497.09375 L 271.24023 488.80078 z M 318.66602 501.04883 L 322.5332 503.33203 L 322.46875 503.43945 L 322.32031 503.67969 L 322.3125 503.69141 C 322.15352 503.93967 321.98502 504.18193 321.80859 504.41797 L 321.81055 504.41797 C 321.6345 504.65351 321.44835 504.88131 321.25586 505.10352 C 321.06357 505.32549 320.86396 505.54047 320.65625 505.74805 C 320.44853 505.95563 320.23382 506.15551 320.01172 506.34766 C 319.78938 506.54002 319.55987 506.72448 319.32422 506.90039 C 319.08804 507.07669 318.84603 507.24545 318.59766 507.4043 L 318.58594 507.41211 L 318.3457 507.56055 L 318.0918 507.71094 L 317.83203 507.85547 L 317.57031 507.99219 L 317.30273 508.125 L 317.0332 508.25 L 316.75977 508.36914 L 316.48242 508.48242 L 316.20312 508.58984 L 315.91797 508.6875 L 315.63086 508.78125 L 315.3418 508.86719 L 315.04883 508.94531 L 314.75391 509.01758 L 314.46484 509.08008 L 314.44922 509.08398 C 314.20421 509.1332 313.93986 509.1801 313.6543 509.2168 L 313.08203 504.76367 C 313.21544 504.74647 313.36702 504.7199 313.53125 504.6875 L 313.53516 504.68555 L 313.74805 504.64062 L 313.93555 504.5957 L 314.12109 504.54492 L 314.30273 504.49219 L 314.48438 504.43359 L 314.66406 504.36914 L 314.8418 504.30273 L 315.01562 504.23242 L 315.18945 504.15625 L 315.35938 504.07617 L 315.52734 503.99414 L 315.69336 503.90625 L 315.85742 503.81445 L 316.01953 503.7207 L 316.17773 503.62109 C 316.33487 503.5206 316.48913 503.41437 316.63867 503.30273 C 316.78789 503.19135 316.93335 503.07501 317.07422 502.95312 C 317.21493 502.83139 317.3508 502.70381 317.48242 502.57227 C 317.61404 502.44073 317.74147 502.30468 317.86328 502.16406 C 317.98522 502.0233 318.10144 501.87762 318.21289 501.72852 C 318.32457 501.57909 318.43071 501.42654 318.53125 501.26953 L 318.63086 501.11133 L 318.66602 501.04883 z M 279.10156 503.48633 C 279.19934 503.55518 279.32145 503.63451 279.46875 503.72461 L 279.62305 503.81445 L 279.78711 503.90625 L 279.95312 503.99414 L 280.12109 504.07617 L 280.29102 504.15625 L 280.46484 504.23242 L 280.63867 504.30273 L 280.81641 504.36914 L 280.99609 504.43359 L 281.17773 504.49219 L 281.35938 504.54492 L 281.54492 504.5957 L 281.73242 504.64062 L 281.92188 504.68164 L 282.11133 504.71875 L 282.30469 504.75 L 282.49805 504.77734 L 282.70508 504.80078 C 283.64246 504.89998 284.95646 504.7105 286.61523 504.84766 L 286.24414 509.32227 C 285.27665 509.24237 283.9266 509.44461 282.23438 509.26562 L 282.22461 509.26562 L 281.93555 509.23242 L 281.63086 509.18945 L 281.32617 509.13867 L 281.02539 509.08203 L 280.72656 509.01758 L 280.43164 508.94531 L 280.13867 508.86719 L 279.84961 508.78125 L 279.5625 508.6875 L 279.27734 508.58984 L 278.99805 508.48242 L 278.7207 508.36914 L 278.44727 508.25 L 278.17773 508.125 L 277.91016 507.99219 L 277.64844 507.85547 L 277.38867 507.71094 L 277.14258 507.56445 L 277.12695 507.55469 C 276.94238 507.44181 276.736 507.31338 276.51562 507.1582 L 279.10156 503.48633 z M 295.41016 504.83984 L 304.39062 504.83984 L 304.39062 509.33008 L 295.41016 509.33008 L 295.41016 504.83984 z M 311.64258 514.34375 C 312.14524 514.34442 312.67942 514.36472 313.24414 514.42383 L 313.25391 514.42578 L 313.54492 514.45703 L 313.84961 514.5 L 314.1543 514.55078 L 314.45508 514.60742 L 314.75195 514.67188 L 315.04883 514.74414 L 315.3418 514.82227 L 315.63086 514.9082 L 315.91797 515.00195 L 316.20117 515.10156 L 316.48242 515.20703 L 316.74805 515.31445 L 316.76367 515.32227 C 316.99896 515.42185 317.24526 515.53157 317.49805 515.66016 L 315.46094 519.66211 C 315.32686 519.5939 315.17804 519.52663 315.01367 519.45703 L 314.8418 519.38672 L 314.66406 519.32031 L 314.48438 519.25781 L 314.30469 519.19922 L 314.12109 519.14453 L 313.93555 519.09375 L 313.74805 519.04883 L 313.55859 519.00781 L 313.36914 518.97266 L 313.17578 518.93945 L 312.98242 518.91211 L 312.75781 518.88672 L 312.77734 518.89062 C 311.48563 518.75554 309.64384 519.16537 307.33594 518.82617 L 307.99023 514.38477 C 308.9097 514.51992 310.13459 514.34174 311.64258 514.34375 z M 370.96289 514.34375 C 371.46574 514.34442 371.99971 514.36472 372.56445 514.42383 L 372.57422 514.42578 L 372.86523 514.45703 L 373.16992 514.5 L 373.47461 514.55078 L 373.77539 514.60742 L 374.07227 514.67188 L 374.36914 514.74414 L 374.66211 514.82227 L 374.95117 514.9082 L 375.23828 515.00195 L 375.52148 515.10156 L 375.80273 515.20703 L 376.06836 515.31445 L 376.08398 515.32227 C 376.31918 515.42181 376.56365 515.53158 376.81641 515.66016 L 374.78125 519.66211 C 374.64724 519.59394 374.49833 519.52663 374.33398 519.45703 L 374.16211 519.38672 L 373.98438 519.32031 L 373.80469 519.25781 L 373.625 519.19922 L 373.44141 519.14453 L 373.25586 519.09375 L 373.06836 519.04883 L 372.87891 519.00781 L 372.68945 518.97266 L 372.49609 518.93945 L 372.30273 518.91211 L 372.07812 518.88672 L 372.09766 518.89062 C 370.80589 518.75544 368.96424 519.1654 366.65625 518.82617 L 367.30859 514.38477 C 368.22808 514.51994 369.45435 514.34175 370.96289 514.34375 z M 283.4668 514.35938 L 283.52344 518.84961 L 283.29297 518.85352 L 283.0918 518.86133 L 282.89258 518.87305 L 282.69531 518.89062 L 282.49805 518.91211 L 282.30469 518.93945 L 282.11133 518.97266 L 281.92188 519.00781 L 281.73242 519.04883 L 281.54492 519.09375 L 281.35938 519.14453 L 281.17578 519.19922 L 280.99609 519.25781 L 280.81641 519.32031 L 280.63867 519.38672 L 280.46289 519.45898 L 280.29102 519.5332 L 280.12109 519.61328 L 279.95117 519.69531 L 279.78516 519.7832 L 279.62305 519.875 L 279.46094 519.96875 L 279.30273 520.06836 C 279.14561 520.16882 278.99134 520.27512 278.8418 520.38672 C 278.69259 520.49807 278.54711 520.61449 278.40625 520.73633 C 278.26554 520.85803 278.12966 520.98568 277.99805 521.11719 C 277.86644 521.24868 277.73899 521.38481 277.61719 521.52539 L 277.49805 521.66797 L 277.41602 521.76758 L 273.91992 518.95117 L 274.03516 518.80859 L 274.21484 518.5957 L 274.22461 518.58398 C 274.41691 518.36204 274.6165 518.14699 274.82422 517.93945 C 275.03195 517.7319 275.24665 517.53195 275.46875 517.33984 C 275.6911 517.14752 275.92059 516.96298 276.15625 516.78711 C 276.39243 516.61085 276.63444 516.44396 276.88281 516.28516 L 276.89453 516.27734 L 277.13477 516.12891 L 277.38867 515.97852 L 277.64844 515.83398 L 277.91016 515.69727 L 278.17773 515.56445 L 278.44727 515.43945 L 278.7207 515.32031 L 278.99805 515.20703 L 279.2793 515.10156 L 279.5625 515.00195 L 279.84961 514.9082 L 280.13867 514.82227 L 280.43164 514.74414 L 280.72852 514.67188 L 281.02539 514.60742 L 281.32617 514.55078 L 281.63086 514.5 L 281.93555 514.45703 L 282.24414 514.42188 L 282.55469 514.39453 L 282.86719 514.375 L 283.17969 514.36328 L 283.4668 514.35938 z M 289.70117 514.35938 L 298.68164 514.35938 L 298.68164 518.84961 L 289.70117 518.84961 L 289.70117 514.35938 z M 349.02148 514.35938 L 358.00195 514.35938 L 358.00195 518.84961 L 349.02148 518.84961 L 349.02148 514.35938 z M 342.78711 514.36133 L 342.84375 518.84961 L 342.61328 518.85352 L 342.41211 518.86133 L 342.21289 518.87305 L 342.01562 518.89062 L 341.81836 518.91211 L 341.625 518.93945 L 341.43164 518.97266 L 341.24219 519.00781 L 341.05273 519.04883 L 340.86523 519.09375 L 340.67969 519.14453 L 340.49609 519.19922 L 340.31641 519.25781 L 340.13672 519.32031 L 339.95898 519.38672 L 339.7832 519.45898 L 339.61133 519.5332 L 339.44141 519.61328 L 339.27148 519.69531 L 339.10547 519.7832 L 338.94336 519.875 L 338.78125 519.96875 L 338.62305 520.06836 C 338.46592 520.16882 338.31165 520.27512 338.16211 520.38672 C 338.0129 520.49807 337.86742 520.61449 337.72656 520.73633 C 337.58586 520.85803 337.44997 520.98568 337.31836 521.11719 C 337.18675 521.24868 337.0593 521.38481 336.9375 521.52539 L 336.81836 521.66797 L 336.73633 521.76758 L 333.24023 518.95117 L 333.35547 518.80859 L 333.53516 518.5957 L 333.54492 518.58398 C 333.73722 518.36204 333.93681 518.14699 334.14453 517.93945 C 334.35226 517.7319 334.56696 517.53195 334.78906 517.33984 C 335.01141 517.14752 335.2409 516.96298 335.47656 516.78711 C 335.71275 516.61085 335.95475 516.44396 336.20312 516.28516 L 336.21484 516.27734 L 336.45508 516.12891 L 336.70898 515.97852 L 336.96875 515.83398 L 337.23047 515.69727 L 337.49805 515.56445 L 337.76758 515.43945 L 338.04102 515.32031 L 338.31836 515.20703 L 338.59961 515.10156 L 338.88281 515.00195 L 339.16992 514.9082 L 339.45898 514.82227 L 339.75195 514.74414 L 340.04883 514.67188 L 340.3457 514.60742 L 340.64648 514.55078 L 340.95117 514.5 L 341.25586 514.45703 L 341.56445 514.42188 L 341.875 514.39453 L 342.1875 514.375 L 342.5 514.36328 L 342.78711 514.36133 z M 323.97461 524.05859 L 323.99219 524.13867 L 324.05078 524.43945 L 324.09961 524.74219 L 324.14258 525.04883 L 324.17773 525.35742 L 324.20508 525.66602 L 324.22461 525.97852 L 324.23633 526.29297 L 324.24023 526.59375 L 324.24023 533.5 L 319.75 533.5 L 319.75 526.62305 L 319.74805 526.40625 L 319.74023 526.20508 L 319.72656 526.00586 L 319.70898 525.80859 L 319.6875 525.61328 L 319.66016 525.41797 L 319.62891 525.22656 L 319.5918 525.03516 L 319.58594 525.00977 L 323.97461 524.05859 z M 383.29492 524.05859 L 383.3125 524.13867 L 383.37109 524.43945 L 383.41992 524.74219 L 383.46289 525.04883 L 383.49805 525.35742 L 383.52539 525.66602 L 383.54492 525.97852 L 383.55664 526.29297 L 383.56055 526.59375 L 383.56055 533.5 L 379.07031 533.5 L 379.07031 526.62305 L 379.06836 526.40625 L 379.06055 526.20508 L 379.04688 526.00586 L 379.0293 525.80859 L 379.00781 525.61328 L 378.98047 525.41797 L 378.94922 525.22656 L 378.91211 525.03516 L 378.90625 525.00977 L 383.29492 524.05859 z M 271.24023 528.8418 L 275.73047 528.8418 L 275.73047 537.82227 L 271.24023 537.82227 L 271.24023 528.8418 z M 330.56055 528.8418 L 335.05078 528.8418 L 335.05078 537.82227 L 330.56055 537.82227 L 330.56055 528.8418 z M 319.75 542.48047 L 324.24023 542.48047 L 324.24023 551.46094 L 319.75 551.46094 L 319.75 542.48047 z M 379.07031 542.48047 L 383.56055 542.48047 L 383.56055 551.46094 L 379.07031 551.46094 L 379.07031 542.48047 z M 271.24023 546.80273 L 275.73047 546.80273 L 275.73047 555.06641 L 275.73242 555.2832 L 275.74023 555.48438 L 275.75 555.64062 L 271.26953 555.92383 L 271.25586 555.71094 L 271.24414 555.39648 L 271.24023 555.0957 L 271.24023 546.80273 z M 330.56055 546.80273 L 335.05078 546.80273 L 335.05078 555.06641 L 335.05273 555.2832 L 335.06055 555.48438 L 335.07031 555.64062 L 330.58984 555.92383 L 330.57617 555.71094 L 330.56445 555.39648 L 330.56055 555.0957 L 330.56055 546.80273 z M 318.66602 559.04883 L 322.5332 561.33203 L 322.46875 561.44141 L 322.32031 561.67969 L 322.3125 561.69141 C 322.15353 561.93967 321.98697 562.18192 321.81055 562.41797 C 321.6345 562.65351 321.44835 562.88326 321.25586 563.10547 C 321.06357 563.32745 320.86396 563.54242 320.65625 563.75 C 320.44853 563.95759 320.23382 564.15745 320.01172 564.34961 C 319.78938 564.54198 319.55987 564.72643 319.32422 564.90234 C 319.08804 565.07865 318.84603 565.24545 318.59766 565.4043 L 318.58594 565.41211 L 318.3457 565.56055 L 318.0918 565.71094 L 317.83203 565.85547 L 317.57031 565.99414 L 317.30469 566.125 L 317.0332 566.25195 L 316.75977 566.37109 L 316.48242 566.48438 L 316.20312 566.58984 L 315.91797 566.68945 L 315.63086 566.78125 L 315.3418 566.86719 L 315.04883 566.94727 L 314.75391 567.01953 L 314.46484 567.08008 L 314.44922 567.08398 C 314.20424 567.1332 313.93985 567.1801 313.6543 567.2168 L 313.08203 562.76367 C 313.22529 562.74527 313.38565 562.71754 313.56445 562.68164 L 313.74805 562.64258 L 313.93555 562.5957 L 314.12109 562.54688 L 314.30273 562.49219 L 314.48438 562.43359 L 314.66406 562.37109 L 314.8418 562.30469 L 315.01562 562.23242 L 315.18945 562.15625 L 315.35938 562.07812 L 315.52734 561.99414 L 315.69336 561.90625 L 315.85742 561.81641 L 316.01953 561.7207 L 316.17773 561.62305 C 316.33487 561.52255 316.48913 561.41633 316.63867 561.30469 C 316.78789 561.1933 316.93335 561.07502 317.07422 560.95312 C 317.21493 560.8314 317.3508 560.70576 317.48242 560.57422 C 317.61404 560.44268 317.74147 560.30664 317.86328 560.16602 C 317.98522 560.02525 318.10144 559.87958 318.21289 559.73047 C 318.32458 559.58104 318.43071 559.42654 318.53125 559.26953 L 318.63086 559.11133 L 318.66602 559.04883 z M 377.98633 559.04883 L 381.85352 561.33203 L 381.78906 561.44141 L 381.64062 561.67969 L 381.63281 561.69141 C 381.47384 561.93967 381.30728 562.18192 381.13086 562.41797 C 380.95481 562.65351 380.76866 562.88326 380.57617 563.10547 C 380.38388 563.32745 380.18427 563.54242 379.97656 563.75 C 379.76885 563.95759 379.55413 564.15745 379.33203 564.34961 C 379.10969 564.54198 378.88019 564.72643 378.64453 564.90234 C 378.40836 565.07865 378.16634 565.24545 377.91797 565.4043 L 377.90625 565.41211 L 377.66602 565.56055 L 377.41211 565.71094 L 377.15234 565.85547 L 376.89062 565.99414 L 376.625 566.125 L 376.35352 566.25195 L 376.08008 566.37109 L 375.80273 566.48438 L 375.52344 566.58984 L 375.23828 566.68945 L 374.95117 566.78125 L 374.66211 566.86719 L 374.36914 566.94727 L 374.07422 567.01953 L 373.78516 567.08008 L 373.76953 567.08398 C 373.52462 567.1332 373.26014 567.1801 372.97461 567.2168 L 372.40234 562.76367 C 372.54554 562.74527 372.70597 562.71754 372.88477 562.68164 L 373.06836 562.64258 L 373.25586 562.5957 L 373.44141 562.54688 L 373.62305 562.49219 L 373.80469 562.43359 L 373.98438 562.37109 L 374.16211 562.30469 L 374.33594 562.23242 L 374.50977 562.1582 L 374.67969 562.07812 L 374.84766 561.99414 L 375.01367 561.90625 L 375.17773 561.81641 L 375.33984 561.7207 L 375.49805 561.62305 C 375.65518 561.52255 375.80944 561.41633 375.95898 561.30469 C 376.1082 561.1933 376.25366 561.07502 376.39453 560.95312 C 376.53525 560.8314 376.67111 560.70577 376.80273 560.57422 C 376.93435 560.44268 377.06178 560.30664 377.18359 560.16602 C 377.30553 560.02525 377.42175 559.87958 377.5332 559.73047 C 377.64489 559.58104 377.75102 559.42654 377.85156 559.26953 L 377.95117 559.11133 L 377.98633 559.04883 z M 279.10156 561.48828 C 279.19107 561.55131 279.30632 561.62623 279.4375 561.70703 L 279.44922 561.71484 L 279.46875 561.72656 L 279.62305 561.81641 L 279.78711 561.90625 L 279.95312 561.99414 L 280.12109 562.07812 L 280.29102 562.15625 L 280.46484 562.23242 L 280.63867 562.30469 L 280.81641 562.37109 L 280.99609 562.43359 L 281.17773 562.49219 L 281.35938 562.54688 L 281.54492 562.5957 L 281.73242 562.64258 L 281.92188 562.68359 L 282.11133 562.71875 L 282.30469 562.75 L 282.49805 562.77734 L 282.70508 562.80078 C 283.64247 562.89998 284.95641 562.71049 286.61523 562.84766 L 286.24609 567.32227 C 285.2786 567.24227 283.92662 567.44657 282.23438 567.26758 L 282.22461 567.26562 L 281.93555 567.23242 L 281.63086 567.19141 L 281.32617 567.14062 L 281.02539 567.08398 L 280.72656 567.01953 L 280.43164 566.94727 L 280.13867 566.86719 L 279.84961 566.78125 L 279.5625 566.68945 L 279.27734 566.58984 L 278.99805 566.48438 L 278.7207 566.37109 L 278.44727 566.25195 L 278.17578 566.125 L 277.91016 565.99414 L 277.64844 565.85547 L 277.38867 565.71094 L 277.14258 565.56641 L 277.12695 565.55664 C 276.94244 565.4438 276.73599 565.31533 276.51562 565.16016 L 279.10156 561.48828 z M 338.42188 561.48828 C 338.51136 561.55129 338.62664 561.62623 338.75781 561.70703 L 338.76953 561.71484 L 338.78906 561.72656 L 338.94336 561.81641 L 339.10742 561.90625 L 339.27344 561.99414 L 339.44141 562.07812 L 339.61133 562.1582 L 339.78516 562.23242 L 339.95898 562.30469 L 340.13672 562.37109 L 340.31641 562.43359 L 340.49805 562.49219 L 340.67969 562.54688 L 340.86523 562.5957 L 341.05273 562.64258 L 341.24219 562.68359 L 341.43164 562.71875 L 341.625 562.75 L 341.81836 562.77734 L 342.02539 562.80078 C 342.9628 562.89998 344.27668 562.71047 345.93555 562.84766 L 345.56641 567.32227 C 344.5989 567.24227 343.24698 567.44657 341.55469 567.26758 L 341.54492 567.26562 L 341.25586 567.23242 L 340.95117 567.19141 L 340.64648 567.14062 L 340.3457 567.08398 L 340.04688 567.01953 L 339.75195 566.94727 L 339.45898 566.86719 L 339.16992 566.78125 L 338.88281 566.68945 L 338.59766 566.58984 L 338.31836 566.48438 L 338.04102 566.37109 L 337.76758 566.25195 L 337.49609 566.125 L 337.23047 565.99414 L 336.96875 565.85547 L 336.70898 565.71094 L 336.46289 565.56641 L 336.44727 565.55664 C 336.2628 565.44382 336.05629 565.31532 335.83594 565.16016 L 338.42188 561.48828 z M 295.41016 562.83984 L 304.39062 562.83984 L 304.39062 567.33008 L 295.41016 567.33008 L 295.41016 562.83984 z M 354.73047 562.83984 L 363.71094 562.83984 L 363.71094 567.33008 L 354.73047 567.33008 L 354.73047 562.83984 z M 370.96289 572.46484 C 371.46576 572.46569 371.99958 572.48772 372.56445 572.54688 L 372.57422 572.54688 L 372.86523 572.58008 L 373.16992 572.62305 L 373.47461 572.67188 L 373.77539 572.73047 L 374.07422 572.79492 L 374.36914 572.86523 L 374.66211 572.94531 L 374.95117 573.03125 L 375.23828 573.12305 L 375.52344 573.22266 L 375.80273 573.33008 L 376.07031 573.4375 L 376.08398 573.44336 C 376.31866 573.54273 376.56381 573.65468 376.81641 573.7832 L 374.78125 577.78516 C 374.65573 577.72129 374.51399 577.65504 374.36133 577.58984 L 374.16211 577.50977 L 373.98438 577.44141 L 373.80469 577.37891 L 373.62305 577.32031 L 373.44141 577.26562 L 373.25586 577.2168 L 373.06836 577.17188 L 372.87891 577.13086 L 372.68945 577.09375 L 372.49609 577.0625 L 372.30273 577.03516 L 372.09766 577.01172 L 372.0957 577.01172 C 370.80396 576.87692 368.96401 577.28864 366.65625 576.94922 L 367.30859 572.50586 C 368.22806 572.64108 369.45427 572.4623 370.96289 572.46484 z M 430.28125 572.46484 C 430.7843 572.46569 431.31989 572.48772 431.88477 572.54688 L 431.89453 572.54688 L 432.18359 572.58008 L 432.49023 572.62305 L 432.79297 572.67188 L 433.09375 572.73047 L 433.39258 572.79492 L 433.6875 572.86523 L 433.98047 572.94531 L 434.27148 573.03125 L 434.55859 573.12305 L 434.8418 573.22266 L 435.12305 573.33008 L 435.38867 573.4375 L 435.40234 573.44336 C 435.63693 573.54269 435.88219 573.6547 436.13477 573.7832 L 434.09961 577.78516 C 433.9661 577.71723 433.81659 577.64763 433.65234 577.57812 L 433.48047 577.50977 L 433.30273 577.44141 L 433.125 577.37891 L 432.94336 577.32031 L 432.75977 577.26562 L 432.57422 577.2168 L 432.38672 577.17188 L 432.19922 577.13086 L 432.00781 577.09375 L 431.81445 577.0625 L 431.62109 577.03516 L 431.41602 577.01172 L 431.41406 577.01172 C 430.12227 576.87692 428.28235 577.28861 425.97461 576.94922 L 426.62695 572.50586 C 427.54645 572.64108 428.77209 572.4623 430.28125 572.46484 z M 342.78711 572.48242 L 342.84375 576.97266 L 342.61328 576.97461 L 342.41211 576.98242 L 342.21289 576.99609 L 342.01562 577.01367 L 341.81836 577.03516 L 341.625 577.0625 L 341.43164 577.09375 L 341.24219 577.13086 L 341.05273 577.17188 L 340.86523 577.2168 L 340.67969 577.26562 L 340.49805 577.32031 L 340.31641 577.37891 L 340.13672 577.44141 L 339.95898 577.50977 L 339.78516 577.58008 L 339.61133 577.65625 L 339.44141 577.73438 L 339.27344 577.81836 L 339.10742 577.90625 L 338.94336 577.99609 L 338.78125 578.0918 L 338.62305 578.19141 C 338.46591 578.2919 338.31165 578.39813 338.16211 578.50977 C 338.01289 578.62115 337.86743 578.7375 337.72656 578.85938 C 337.58585 578.98112 337.44998 579.10869 337.31836 579.24023 C 337.18674 579.37177 337.05931 579.50782 336.9375 579.64844 L 336.81836 579.78906 L 336.73828 579.89062 L 333.24023 577.07422 L 333.35352 576.93164 L 333.53516 576.71875 L 333.54492 576.70703 C 333.73721 576.48505 333.93682 576.27007 334.14453 576.0625 C 334.35225 575.85491 334.56697 575.65504 334.78906 575.46289 C 335.0114 575.27053 335.24091 575.08607 335.47656 574.91016 C 335.71274 574.73385 335.95478 574.56705 336.20312 574.4082 L 336.21484 574.40039 L 336.45508 574.25195 L 336.70898 574.10156 L 336.96875 573.95703 L 337.23047 573.81836 L 337.49805 573.6875 L 337.76758 573.56055 L 338.04102 573.44141 L 338.31836 573.33008 L 338.59766 573.22266 L 338.88281 573.12305 L 339.16992 573.03125 L 339.45898 572.94531 L 339.75195 572.86523 L 340.04688 572.79492 L 340.3457 572.73047 L 340.64648 572.67188 L 340.95117 572.62305 L 341.25586 572.58008 L 341.56445 572.54492 L 341.875 572.51758 L 342.1875 572.49805 L 342.5 572.48633 L 342.78711 572.48242 z M 349.02148 572.48242 L 358.00195 572.48242 L 358.00195 576.97266 L 349.02148 576.97266 L 349.02148 572.48242 z M 402.10547 572.48242 L 402.16211 576.97266 L 401.93164 576.97461 L 401.73047 576.98242 L 401.53125 576.99609 L 401.33398 577.01367 L 401.13672 577.03516 L 400.94336 577.0625 L 400.75 577.09375 L 400.56055 577.13086 L 400.37109 577.17188 L 400.18359 577.2168 L 399.99805 577.26562 L 399.81445 577.32031 L 399.63477 577.37891 L 399.45508 577.44141 L 399.27734 577.50977 L 399.10352 577.58008 L 398.92969 577.65625 L 398.75977 577.73438 L 398.58984 577.81836 L 398.42383 577.90625 L 398.26172 577.99609 L 398.09961 578.0918 L 397.94141 578.19141 C 397.78431 578.29189 397.62998 578.39814 397.48047 578.50977 C 397.33129 578.62115 397.18576 578.73751 397.04492 578.85938 C 396.90424 578.9811 396.76831 579.10675 396.63672 579.23828 C 396.50513 579.36981 396.37959 579.50782 396.25781 579.64844 L 396.13672 579.78906 L 396.05664 579.89062 L 392.55859 577.07422 L 392.67383 576.93164 L 392.85352 576.71875 L 392.86328 576.70703 C 393.05554 576.48505 393.25521 576.27008 393.46289 576.0625 C 393.67057 575.85491 393.88535 575.65505 394.10742 575.46289 C 394.32973 575.27052 394.55929 575.08608 394.79492 574.91016 C 395.03107 574.73385 395.27314 574.56705 395.52148 574.4082 L 395.5332 574.40039 L 395.77344 574.25195 L 396.02734 574.10156 L 396.28516 573.95703 L 396.54883 573.81836 L 396.81445 573.6875 L 397.08594 573.56055 L 397.35938 573.44141 L 397.63672 573.33008 L 397.91602 573.22266 L 398.20117 573.12305 L 398.48633 573.03125 L 398.77734 572.94531 L 399.07031 572.86523 L 399.36523 572.79492 L 399.66406 572.73047 L 399.96484 572.67188 L 400.26953 572.62305 L 400.57422 572.58008 L 400.88281 572.54492 L 401.19336 572.51758 L 401.50391 572.49805 L 401.81836 572.48633 L 402.10547 572.48242 z M 408.33984 572.48242 L 417.32031 572.48242 L 417.32031 576.97266 L 408.33984 576.97266 L 408.33984 572.48242 z M 383.29492 582.17969 L 383.3125 582.26172 L 383.37109 582.5625 L 383.41992 582.86719 L 383.46289 583.17188 L 383.49805 583.48047 L 383.52539 583.79102 L 383.54492 584.10156 L 383.55664 584.41602 L 383.56055 584.7168 L 383.56055 591.62109 L 379.07031 591.62109 L 379.07031 584.74609 L 379.06836 584.5293 L 379.06055 584.32812 L 379.04688 584.12891 L 379.0293 583.93164 L 379.00781 583.73633 L 378.98047 583.54102 L 378.94922 583.34961 L 378.91211 583.1582 L 378.90625 583.13281 L 383.29492 582.17969 z M 442.61523 582.17969 L 442.63281 582.26172 L 442.68945 582.5625 L 442.74023 582.86719 L 442.78125 583.17188 L 442.81641 583.48047 L 442.84375 583.79102 L 442.86328 584.10156 L 442.87695 584.41602 L 442.87891 584.7168 L 442.87891 591.62109 L 438.38867 591.62109 L 438.38867 584.74609 L 438.38672 584.5293 L 438.37891 584.32812 L 438.36719 584.12891 L 438.34961 583.93164 L 438.32617 583.73633 L 438.30078 583.54102 L 438.26758 583.34961 L 438.23242 583.1582 L 438.22656 583.13086 L 442.61523 582.17969 z M 330.56055 586.96484 L 335.05078 586.96484 L 335.05078 595.94531 L 330.56055 595.94531 L 330.56055 586.96484 z M 389.88086 586.96484 L 394.37109 586.96484 L 394.37109 595.94531 L 389.88086 595.94531 L 389.88086 586.96484 z M 438.38867 600.60156 L 442.87891 600.60156 L 442.87891 609.58203 L 438.38867 609.58203 L 438.38867 600.60156 z M 379.07031 600.60352 L 383.56055 600.60352 L 383.56055 609.58398 L 379.07031 609.58398 L 379.07031 600.60352 z M 330.56055 604.92578 L 335.05078 604.92578 L 335.05078 613.18945 L 335.05273 613.40625 L 335.06055 613.60742 L 335.07031 613.76367 L 330.58984 614.04688 L 330.57617 613.83203 L 330.56445 613.51953 L 330.56055 613.2168 L 330.56055 604.92578 z M 389.88086 604.92578 L 394.37109 604.92578 L 394.37109 613.18945 L 394.37305 613.40625 L 394.38086 613.60742 L 394.39062 613.76562 L 389.9082 614.04688 L 389.89648 613.83203 L 389.88281 613.51953 L 389.88086 613.2168 L 389.88086 604.92578 z M 437.30664 617.16992 L 441.17383 619.45312 L 441.10938 619.5625 L 440.95898 619.80273 L 440.95312 619.81445 C 440.79415 620.06271 440.62565 620.30498 440.44922 620.54102 C 440.27316 620.77655 440.08898 621.00436 439.89648 621.22656 C 439.70419 621.44854 439.50264 621.66352 439.29492 621.87109 C 439.0872 622.07868 438.8725 622.28051 438.65039 622.47266 C 438.42804 622.66502 438.19855 622.84753 437.96289 623.02344 C 437.72671 623.19974 437.4847 623.3685 437.23633 623.52734 L 437.22461 623.53516 L 436.98633 623.68359 L 436.73047 623.83398 L 436.47266 623.97852 L 436.20898 624.11523 L 435.94336 624.24805 L 435.67383 624.37305 L 435.39844 624.49219 L 435.12305 624.60547 L 434.8418 624.71289 L 434.55859 624.81055 L 434.27148 624.9043 L 433.98047 624.99023 L 433.6875 625.06836 L 433.39258 625.14062 L 433.10547 625.20312 L 433.08789 625.20703 C 432.84355 625.25604 432.58027 625.30314 432.29492 625.33984 L 431.72266 620.88672 C 431.85555 620.86962 432.00774 620.84295 432.17188 620.81055 L 432.17578 620.81055 L 432.38672 620.76367 L 432.57422 620.71875 L 432.75977 620.66797 L 432.94336 620.61523 L 433.125 620.55664 L 433.30273 620.49219 L 433.48047 620.42578 L 433.65625 620.35547 L 433.82812 620.2793 L 434 620.19922 L 434.16797 620.11719 L 434.33398 620.0293 L 434.49805 619.9375 L 434.6582 619.84375 L 434.81836 619.74414 C 434.9755 619.64365 435.12779 619.53741 435.27734 619.42578 C 435.42657 619.31439 435.57202 619.19805 435.71289 619.07617 C 435.85361 618.95443 435.98946 618.82685 436.12109 618.69531 C 436.25272 618.56378 436.38014 618.42773 436.50195 618.28711 C 436.62389 618.14635 436.74011 618.00067 436.85156 617.85156 L 436.85352 617.85156 C 436.95957 617.70968 437.06025 617.56476 437.15625 617.41602 L 437.26953 617.23438 L 437.30664 617.16992 z M 377.98828 617.17188 L 381.85352 619.45312 L 381.78906 619.5625 L 381.64062 619.80273 L 381.63281 619.81445 C 381.47384 620.06271 381.30533 620.30498 381.12891 620.54102 L 381.13086 620.54102 C 380.95481 620.77655 380.76866 621.00436 380.57617 621.22656 C 380.38388 621.44854 380.18427 621.66352 379.97656 621.87109 C 379.76885 622.07868 379.55413 622.27856 379.33203 622.4707 C 379.10969 622.66306 378.88019 622.84753 378.64453 623.02344 C 378.40836 623.19974 378.16634 623.3685 377.91797 623.52734 L 377.90625 623.53516 L 377.66602 623.68359 L 377.41211 623.83398 L 377.15234 623.97852 L 376.89062 624.11523 L 376.62305 624.24805 L 376.35352 624.37305 L 376.08008 624.49219 L 375.80273 624.60547 L 375.52344 624.71289 L 375.23828 624.81055 L 374.95117 624.9043 L 374.66211 624.99023 L 374.36914 625.06836 L 374.07227 625.14062 L 373.78516 625.20312 L 373.76953 625.20703 C 373.52488 625.25614 373.26006 625.30314 372.97461 625.33984 L 372.40234 620.88672 C 372.53548 620.86962 372.68739 620.84295 372.85156 620.81055 L 372.85547 620.80859 L 373.06836 620.76367 L 373.25586 620.71875 L 373.44141 620.66797 L 373.62305 620.61523 L 373.80469 620.55664 L 373.98438 620.49219 L 374.16211 620.42578 L 374.33594 620.35547 L 374.50977 620.2793 L 374.67969 620.19922 L 374.84766 620.11719 L 375.01367 620.0293 L 375.17773 619.9375 L 375.33984 619.84375 L 375.49805 619.74414 C 375.65518 619.64365 375.80944 619.53741 375.95898 619.42578 C 376.1082 619.3144 376.25366 619.19804 376.39453 619.07617 C 376.53525 618.95443 376.67111 618.82685 376.80273 618.69531 C 376.93435 618.56378 377.06178 618.42773 377.18359 618.28711 C 377.30553 618.14635 377.42176 618.00067 377.5332 617.85156 C 377.64489 617.70214 377.75102 617.54958 377.85156 617.39258 L 377.95117 617.23438 L 377.98828 617.17188 z M 338.42188 619.61133 C 338.51943 619.68001 338.64178 619.75756 338.78906 619.84766 L 338.94336 619.9375 L 339.10742 620.0293 L 339.27344 620.11719 L 339.44141 620.19922 L 339.61133 620.2793 L 339.78516 620.35547 L 339.95898 620.42578 L 340.13672 620.49219 L 340.31641 620.55664 L 340.49805 620.61523 L 340.67969 620.66797 L 340.86523 620.71875 L 341.05273 620.76367 L 341.24219 620.80469 L 341.43164 620.8418 L 341.625 620.87305 L 341.81836 620.90039 L 342.02539 620.92383 C 342.96294 621.02303 344.27648 620.83348 345.93555 620.9707 L 345.56641 625.44531 C 344.5988 625.36531 343.24715 625.56767 341.55469 625.38867 L 341.54492 625.38867 L 341.25586 625.35547 L 340.95117 625.3125 L 340.64648 625.26172 L 340.3457 625.20508 L 340.04883 625.14062 L 339.75195 625.06836 L 339.45898 624.99023 L 339.16992 624.9043 L 338.88281 624.81055 L 338.59766 624.71289 L 338.31836 624.60547 L 338.04102 624.49219 L 337.76758 624.37305 L 337.49805 624.24805 L 337.23047 624.11523 L 336.96875 623.97852 L 336.70898 623.83398 L 336.46289 623.6875 L 336.44727 623.67773 C 336.26302 623.56506 336.05623 623.43636 335.83594 623.28125 L 338.42188 619.61133 z M 397.74023 619.61133 C 397.83723 619.67962 397.96021 619.75756 398.10742 619.84766 L 398.26172 619.9375 L 398.42383 620.0293 L 398.58984 620.11719 L 398.75977 620.19922 L 398.92969 620.2793 L 399.10352 620.35547 L 399.27734 620.42578 L 399.45508 620.49219 L 399.63477 620.55664 L 399.81445 620.61523 L 399.99805 620.66797 L 400.18359 620.71875 L 400.37109 620.76367 L 400.56055 620.80469 L 400.75 620.8418 L 400.94336 620.87305 L 401.13672 620.90039 L 401.34375 620.92383 C 402.28172 621.02303 403.59601 620.83329 405.25586 620.9707 L 404.88477 625.44531 C 403.91685 625.36521 402.56423 625.56774 400.87109 625.38867 L 400.86328 625.38867 L 400.57422 625.35547 L 400.26953 625.3125 L 399.96484 625.26172 L 399.66406 625.20508 L 399.36523 625.14062 L 399.07031 625.06836 L 398.77734 624.99023 L 398.48633 624.9043 L 398.20117 624.81055 L 397.91602 624.71289 L 397.63672 624.60547 L 397.35938 624.49219 L 397.08594 624.37305 L 396.81445 624.24805 L 396.54883 624.11523 L 396.28516 623.97852 L 396.02734 623.83398 L 395.7793 623.6875 L 395.76562 623.67773 C 395.58213 623.56548 395.37634 623.43817 395.15625 623.2832 L 397.74023 619.61133 z M 354.73242 620.96289 L 363.71289 620.96289 L 363.71289 625.45312 L 354.73242 625.45312 L 354.73242 620.96289 z M 414.05078 620.96289 L 423.03125 620.96289 L 423.03125 625.45312 L 414.05078 625.45312 L 414.05078 620.96289 z " />
</svg>
