<?xml version="1.0" encoding="UTF-8" standalone="no"?>
<svg
   class="svg-icon"
   style="overflow:hidden;fill:currentColor"
   viewBox="0 0 800 800"
   version="1.1"
   id="svg1"
   sodipodi:docname="split.svg"
   width="800"
   height="800"
   inkscape:version="1.4.2 (f4327f4, 2025-05-13)"
   xmlns:inkscape="http://www.inkscape.org/namespaces/inkscape"
   xmlns:sodipodi="http://sodipodi.sourceforge.net/DTD/sodipodi-0.dtd"
   xmlns="http://www.w3.org/2000/svg"
   xmlns:svg="http://www.w3.org/2000/svg">
  <defs
     id="defs1" />
  <sodipodi:namedview
     id="namedview1"
     pagecolor="#ffffff"
     bordercolor="#000000"
     borderopacity="0.25"
     inkscape:showpageshadow="2"
     inkscape:pageopacity="0.0"
     inkscape:pagecheckerboard="0"
     inkscape:deskcolor="#d1d1d1"
     inkscape:zoom="0.28613281"
     inkscape:cx="312.79181"
     inkscape:cy="548.69625"
     inkscape:window-width="1440"
     inkscape:window-height="830"
     inkscape:window-x="-6"
     inkscape:window-y="-6"
     inkscape:window-maximized="1"
     inkscape:current-layer="svg1" />
  <path
     id="path1"
     style="fill:#ffffff;fill-opacity:1;stroke-width:0.790078"
     d="m 326.36353,0 c -2.72726,0 -5.45414,2.66724 -5.45414,2.66724 L 102.72786,216.00037 c 0,2.66666 -2.72786,5.33351 -2.72786,8.00018 v 191.99982 c 0,5.33333 5.45434,10.66589 13.63615,10.66589 h 572.72768 c 8.1818,0 13.6362,-5.33313 13.6362,-13.33313 v -400 C 700.00003,5.33313 694.54563,0 686.36383,0 H 331.8177 329.09139 Z m -8.182,45.333863 V 213.33313 H 146.36417 Z M 476.76851,58.59375 h 32.96053 c 6.41584,0 11.58089,5.050273 11.58089,11.323548 v 32.229612 c 0,6.27328 -5.16505,11.32355 -11.58089,11.32355 h -32.96053 c -6.41585,0 -11.5809,-5.05027 -11.5809,-11.32355 V 69.917298 c 0,-6.273275 5.16505,-11.323548 11.5809,-11.323548 z m 0,58.00171 h 32.96053 c 6.41584,0 11.58089,5.05027 11.58089,11.32355 v 32.22961 c 0,6.27328 -5.16505,11.32355 -11.58089,11.32355 h -32.96053 c -6.41585,0 -11.5809,-5.05027 -11.5809,-11.32355 v -32.22961 c 0,-6.27328 5.16505,-11.32355 11.5809,-11.32355 z m 59.31832,0 h 32.9621 c 6.4159,0 11.5809,5.05027 11.5809,11.32355 v 32.22961 c 0,6.27328 -5.165,11.32355 -11.5809,11.32355 h -32.9621 c -6.4158,0 -11.58088,-5.05027 -11.58088,-11.32355 v -32.22961 c 0,-6.27328 5.16508,-11.32355 11.58088,-11.32355 z m 59.4448,0 h 32.9621 c 6.4158,0 11.5809,5.05027 11.5809,11.32355 v 32.22961 c 0,6.27328 -5.1651,11.32355 -11.5809,11.32355 h -32.9621 c -6.4159,0 -11.5809,-5.05027 -11.5809,-11.32355 v -32.22961 c 0,-6.27328 5.165,-11.32355 11.5809,-11.32355 z m 0,58.00171 h 32.9621 c 6.4158,0 11.5809,5.05027 11.5809,11.32355 v 32.22808 c 0,6.27328 -5.1651,11.32355 -11.5809,11.32355 h -32.9621 c -6.4159,0 -11.5809,-5.05027 -11.5809,-11.32355 v -32.22808 c 0,-6.27328 5.165,-11.32356 11.5809,-11.32355 z m -183.2594,66.73584 c 3.40908,0 6.81866,1.33419 9.54593,4.00085 l 106.36287,103.99933 c 2.7273,2.66667 5.4558,5.33409 5.4558,10.66742 2.7272,8 -2.7281,13.33313 -10.90991,13.33313 H 304.54538 c -5.45454,0 -10.90887,-2.66685 -13.63614,-8.00019 -2.72728,-5.33332 5.9e-4,-10.66646 2.72785,-13.33312 L 402.72785,245.33386 c 2.72728,-2.66666 6.13528,-4.00085 9.54438,-4.00085 z M 113.63615,453.33405 c -8.18181,0 -13.63615,5.33313 -13.63615,13.33312 v 319.9997 C 100,794.66688 105.45434,800 113.63615,800 h 572.72768 c 8.1818,0 13.6362,-5.33313 13.6362,-13.33313 v -319.9997 c 0,-8 -5.4544,-13.33312 -13.6362,-13.33312 z m 190.90923,53.33251 h 218.18154 c 5.45451,0 10.90891,2.66685 13.63621,8.00019 2.7272,5.33333 8e-4,10.66703 -2.7263,16.00037 L 424.546,637.33368 c -2.72726,2.66666 -8.18258,2.66571 -10.90984,2.66571 -2.72728,0 -8.18103,7.8e-4 -10.90831,-2.66571 L 293.63709,530.66712 c -2.72726,-5.33334 -2.72785,-10.66704 -2.72785,-16.00037 0,-5.33334 8.1816,-8.00019 13.63614,-8.00019 z m -133.53221,63.73902 h 32.96209 c 6.41585,0 11.5809,5.05027 11.5809,11.32355 v 32.22961 c 0,6.27328 -5.16505,11.32355 -11.5809,11.32355 h -32.96209 c -6.41586,0 -11.58089,-5.05027 -11.58089,-11.32355 v -32.22961 c 0,-6.27328 5.16503,-11.32355 11.58089,-11.32355 z m 0,58.00171 h 32.96209 c 6.41585,0 11.5809,5.05027 11.5809,11.32355 v 32.22808 c 0,6.27328 -5.16505,11.32355 -11.5809,11.32355 h -32.96209 c -6.41586,0 -11.58089,-5.05027 -11.58089,-11.32355 v -32.22808 c 0,-6.27328 5.16503,-11.32355 11.58089,-11.32355 z m 59.31991,0 h 32.9621 c 6.41584,0 11.58089,5.05027 11.58089,11.32355 v 32.22808 c 0,6.27328 -5.16505,11.32355 -11.58089,11.32355 h -32.9621 c -6.41586,0 -11.5809,-5.05027 -11.5809,-11.32355 v -32.22808 c 0,-6.27328 5.16504,-11.32355 11.5809,-11.32355 z m 0,58.12225 h 32.9621 c 6.41584,0 11.58089,5.05027 11.58089,11.32355 v 32.22961 c 0,6.27328 -5.16505,11.32355 -11.58089,11.32355 h -32.9621 c -6.41586,0 -11.5809,-5.05027 -11.5809,-11.32355 v -32.22961 c 0,-6.27328 5.16504,-11.32355 11.5809,-11.32355 z m 59.31991,0 h 32.96053 c 6.41585,0 11.5809,5.05027 11.58089,11.32355 v 32.22961 c 0,6.27328 -5.16504,11.32355 -11.58089,11.32355 h -32.96053 c -6.41585,0 -11.5809,-5.05027 -11.5809,-11.32355 v -32.22961 c 0,-6.27328 5.16505,-11.32355 11.5809,-11.32355 z" />
</svg>
