<?xml version="1.0" encoding="UTF-8" standalone="no"?>
<svg
   width="32"
   height="32"
   viewBox="0 0 32 32"
   version="1.1"
   id="svg1"
   sodipodi:docname="hide.svg"
   inkscape:version="1.4.2 (f4327f4, 2025-05-13)"
   xmlns:inkscape="http://www.inkscape.org/namespaces/inkscape"
   xmlns:sodipodi="http://sodipodi.sourceforge.net/DTD/sodipodi-0.dtd"
   xmlns="http://www.w3.org/2000/svg"
   xmlns:svg="http://www.w3.org/2000/svg">
  <defs
     id="defs1" />
  <sodipodi:namedview
     id="namedview1"
     pagecolor="#ffffff"
     bordercolor="#000000"
     borderopacity="0.25"
     inkscape:showpageshadow="2"
     inkscape:pageopacity="0.0"
     inkscape:pagecheckerboard="0"
     inkscape:deskcolor="#d1d1d1"
     inkscape:zoom="4.578125"
     inkscape:cx="0.54607509"
     inkscape:cy="45.651877"
     inkscape:window-width="1440"
     inkscape:window-height="830"
     inkscape:window-x="-6"
     inkscape:window-y="-6"
     inkscape:window-maximized="1"
     inkscape:current-layer="svg1" />
  <g
     id="surface1"
     transform="matrix(0.26672383,0,0,0.26672383,-1.070325,-1.3095782)"
     style="fill:#ffffff;fill-opacity:1">
    <path
       style="fill:#ffffff;fill-opacity:1;fill-rule:evenodd;stroke:#ffffff;stroke-width:1;stroke-linecap:butt;stroke-linejoin:round;stroke-miterlimit:2;stroke-opacity:1"
       d="m 5.112305,18.78418 -2.153321,2.15625 c -0.584961,0.585937 -0.584961,1.535156 9.77e-4,2.120117 0.585937,0.585937 1.536133,0.585937 2.121094,-9.77e-4 L 7.74707,20.391602 c 1.897461,0.983398 4.189453,1.80664 6.772461,2.041015 V 26 c 0,0.828125 0.672852,1.5 1.5,1.5 0.828125,0 1.5,-0.671875 1.5,-1.5 v -3.571289 c 2.147461,-0.201172 4.091797,-0.805664 5.774414,-1.570313 l 3.199219,3.201172 c 0.584961,0.586914 1.535156,0.586914 2.121094,9.77e-4 0.585937,-0.584961 0.585937,-1.53418 9.76e-4,-2.120117 l -2.579101,-2.581055 c 2.589844,-1.665039 4.09082,-3.369141 4.09082,-3.369141 0.545899,-0.62207 0.485352,-1.570312 -0.136719,-2.117187 -0.62207,-0.545899 -1.570312,-0.485352 -2.117187,0.136719 C 27.873047,14.009766 23.058594,19.5 16,19.5 8.941406,19.5 4.126953,14.009766 4.126953,14.009766 3.580078,13.387695 2.631836,13.327148 2.009766,13.873047 c -0.622071,0.546875 -0.682618,1.495117 -0.136719,2.117187 0,0 1.174805,1.333985 3.239258,2.793946 z m 0,0"
       transform="scale(4)"
       id="path1" />
  </g>
</svg>
