<?xml version="1.0" encoding="UTF-8" standalone="no"?>
<!-- Uploaded to: SVG Repo, www.svgrepo.com, Generator: SVG Repo Mixer Tools -->

<svg
   height="32"
   width="32"
   version="1.1"
   id="Capa_1"
   viewBox="0 0 2.32 2.32"
   xml:space="preserve"
   sodipodi:docname="folder-svgrepo-com.svg"
   inkscape:version="1.4.2 (f4327f4, 2025-05-13)"
   xmlns:inkscape="http://www.inkscape.org/namespaces/inkscape"
   xmlns:sodipodi="http://sodipodi.sourceforge.net/DTD/sodipodi-0.dtd"
   xmlns="http://www.w3.org/2000/svg"
   xmlns:svg="http://www.w3.org/2000/svg"><defs
   id="defs2" /><sodipodi:namedview
   id="namedview2"
   pagecolor="#ffffff"
   bordercolor="#000000"
   borderopacity="0.25"
   inkscape:showpageshadow="2"
   inkscape:pageopacity="0.0"
   inkscape:pagecheckerboard="0"
   inkscape:deskcolor="#d1d1d1"
   inkscape:zoom="8.2872915"
   inkscape:cx="24.555671"
   inkscape:cy="22.20267"
   inkscape:window-width="1440"
   inkscape:window-height="830"
   inkscape:window-x="-6"
   inkscape:window-y="-6"
   inkscape:window-maximized="1"
   inkscape:current-layer="Capa_1" />

<path
   style="fill:#c5c5c5;fill-opacity:1"
   d="M 50.268,12.5 H 25 l -5,-7 H 1.732 C 0.776,5.5 0,6.275 0,7.232 V 49.96 c 0.069,0.002 0.138,0.006 0.205,0.01 L 10.22,22.656 C 10.404,21.973 11.023,21.5 11.73,21.5 H 52 V 14.232 C 52,13.275 51.224,12.5 50.268,12.5 Z"
   id="path2"
   transform="matrix(0.0374999,0,0,0.03702129,0.14500548,0.0863829)" /><path
   style="fill:#0fa60c;fill-opacity:1;fill-rule:nonzero;stroke:none;stroke-width:0.0180804"
   d="m 0.5232563,0.45825601 h 1.403488 V 1.861744 h -1.403488 z m 0,0"
   id="path2-8" /><path
   style="fill:#f0f0f0;stroke-width:0.0372598"
   d="M 1.882151,2.0299999 H 0.20369282 c -0.0386249,0 -0.0667123,-0.036207 -0.0566249,-0.073043 L 0.52829199,0.92513699 c 0.0069,-0.0252489 0.0301124,-0.0427968 0.0566249,-0.0427968 H 2.263375 C 2.302,0.88234019 2.32,0.91876929 2.32,0.95538369 L 1.9387759,1.9872033 c -0.0069,0.025249 -0.030112,0.042796 -0.056625,0.042797 z"
   id="path1" />
</svg>
